<?xml version="1.0" encoding="UTF-8"?>
<svg version="1.1" xmlns="http://www.w3.org/2000/svg" width="1348" height="328">
<path d="M0 0 C444.84 0 889.68 0 1348 0 C1348 108.24 1348 216.48 1348 328 C903.16 328 458.32 328 0 328 C0 219.76 0 111.52 0 0 Z " fill="#FDFDFE" transform="translate(0,0)"/>
<path d="M0 0 C75.78688525 0 75.78688525 0 91 12 C98.30697049 19.37722982 101.0540259 28.34814454 101.4375 38.5625 C101.38098815 47.52904628 98.18360807 54.17967032 92.5 61 C89.75321618 63.19742706 86.97850065 65.12977866 84 67 C84.88805006 69.28230854 84.88805006 69.28230854 87.6875 70.3125 C95.53831454 74.31197156 100.76759361 80.48992868 103.65234375 88.90234375 C105.70125052 101.26484862 103.71271996 114.19777893 96.85546875 124.74609375 C88.24994594 135.19953935 75.7747829 137.87086952 63 140 C42.21 140 21.42 140 0 140 C0 93.8 0 47.6 0 0 Z " fill="#020202" transform="translate(1098,83)"/>
<path d="M0 0 C1.90845703 -0.11891602 1.90845703 -0.11891602 3.85546875 -0.24023438 C13.08582749 -0.44717151 13.08582749 -0.44717151 16.70751953 2.74047852 C18.5286997 5.31029089 19.98412254 7.86452404 21.375 10.6875 C22.35339844 12.32138672 22.35339844 12.32138672 23.3515625 13.98828125 C23.89554688 14.98214844 24.43953125 15.97601563 25 17 C28.27848114 22.87329797 31.75475759 28.60450944 35.3125 34.3125 C41.32358732 43.95880018 47.23414123 53.66274541 53.11108398 63.39111328 C56.90769552 69.6646512 60.74792815 75.90709138 64.63989258 82.12182617 C65.32663937 83.21948429 65.32663937 83.21948429 66.02725983 84.33931732 C67.14282407 86.12226338 68.25886227 87.90491288 69.375 89.6875 C69.38530746 88.58724991 69.39561493 87.48699982 69.40623474 86.35340881 C69.50379302 76.00821326 69.60650995 65.66308023 69.71433926 55.31798649 C69.76961407 49.99887779 69.82304122 44.67976365 69.87231445 39.3605957 C69.91989094 34.23181133 69.97223104 29.1030961 70.02794075 23.97439384 C70.04839484 22.01310372 70.06710275 20.05179462 70.08407402 18.09047127 C70.10805069 15.35329416 70.13811404 12.616249 70.16967773 9.87915039 C70.1754332 9.05988068 70.18118866 8.24061096 70.18711853 7.39651489 C70.26094784 1.80155216 70.26094784 1.80155216 71.375 0.6875 C80.615 0.6875 89.855 0.6875 99.375 0.6875 C99.375 46.8875 99.375 93.0875 99.375 140.6875 C89.805 140.6875 80.235 140.6875 70.375 140.6875 C64.89952408 134.94492769 64.89952408 134.94492769 63.14355469 129.70166016 C61.73593844 126.01270398 59.49495149 122.81324454 57.375 119.5 C56.43036183 117.96031154 55.48910702 116.41854351 54.55078125 114.875 C50.90189597 108.90812275 47.23118903 102.95471292 43.5625 97 C38.27083882 88.40845436 32.99632295 79.80681299 27.75 71.1875 C27.19465576 70.27524658 26.63931152 69.36299316 26.06713867 68.4230957 C22.48071194 62.52421689 18.92705168 56.60758613 15.375 50.6875 C15.045 80.3875 14.715 110.0875 14.375 140.6875 C4.805 140.6875 -4.765 140.6875 -14.625 140.6875 C-14.64754632 122.58142062 -14.66597876 104.47535316 -14.67681217 86.36926365 C-14.68197531 77.96288616 -14.68901834 69.55651799 -14.70043945 61.15014648 C-14.71038575 53.82582068 -14.7168533 46.50150163 -14.71908849 39.17716926 C-14.72039569 35.29659213 -14.72348212 31.4160343 -14.73073006 27.53546333 C-14.73748942 23.88710443 -14.73961713 20.23877289 -14.73810768 16.59040833 C-14.73851637 14.60461581 -14.743912 12.6188263 -14.74942017 10.63304138 C-14.7480455 9.4620993 -14.74667084 8.29115723 -14.74525452 7.08473206 C-14.74663721 5.54856405 -14.74663721 5.54856405 -14.74804783 3.98136234 C-14.42905629 -1.96529008 -4.50173641 0.12766118 0 0 Z " fill="#090C60" transform="translate(176.625,82.3125)"/>
<path d="M0 0 C9.57 0 19.14 0 29 0 C29 18.81 29 37.62 29 57 C47.48 57 65.96 57 85 57 C85 38.19 85 19.38 85 0 C94.57 0 104.14 0 114 0 C114 46.2 114 92.4 114 140 C104.43 140 94.86 140 85 140 C85 120.53 85 101.06 85 81 C66.52 81 48.04 81 29 81 C29 100.47 29 119.94 29 140 C19.43 140 9.86 140 0 140 C0 93.8 0 47.6 0 0 Z " fill="#090C60" transform="translate(720,83)"/>
<path d="M0 0 C1.084021 0.00523682 2.16804199 0.01047363 3.28491211 0.01586914 C4.45473633 0.0190918 5.62456055 0.02231445 6.82983398 0.02563477 C8.0615332 0.03401367 9.29323242 0.04239258 10.56225586 0.05102539 C12.41560547 0.05779297 12.41560547 0.05779297 14.30639648 0.06469727 C17.37089703 0.07652931 20.43530307 0.09301366 23.49975586 0.11352539 C26.44304964 5.78700757 29.10093442 11.34803261 31.12475586 17.42602539 C33.75851107 25.13363255 36.59897286 32.75266802 39.49975586 40.36352539 C39.96099854 41.57459961 40.42224121 42.78567383 40.89746094 44.03344727 C41.6338869 45.96660632 42.37050487 47.89969151 43.1075592 49.83261108 C46.05183871 57.55574042 48.97657786 65.28625624 51.90087891 73.01696777 C52.78438425 75.35235191 53.6683881 77.68754681 54.55249023 80.02270508 C60.01464906 94.45385585 65.4357222 108.90023942 70.81225586 123.36352539 C71.25375977 124.5455957 71.69526367 125.72766602 72.15014648 126.94555664 C72.57102539 128.07864258 72.9919043 129.21172852 73.42553711 130.37915039 C73.98881714 131.8917041 73.98881714 131.8917041 74.56347656 133.43481445 C75.49975586 136.11352539 75.49975586 136.11352539 76.49975586 140.11352539 C66.26975586 140.11352539 56.03975586 140.11352539 45.49975586 140.11352539 C44.01475586 135.69977539 42.52975586 131.28602539 40.99975586 126.73852539 C40.52989258 125.34714355 40.0600293 123.95576172 39.57592773 122.5222168 C39.21047852 121.43086426 38.8450293 120.33951172 38.46850586 119.21508789 C38.09145508 118.09440918 37.7144043 116.97373047 37.32592773 115.8190918 C36.49975586 113.11352539 36.49975586 113.11352539 36.49975586 111.11352539 C19.66975586 111.11352539 2.83975586 111.11352539 -14.50024414 111.11352539 C-15.49024414 115.07352539 -16.48024414 119.03352539 -17.50024414 123.11352539 C-18.33037063 125.64948984 -19.19736685 128.17417219 -20.12524414 130.67602539 C-20.55063477 131.83231445 -20.97602539 132.98860352 -21.41430664 134.17993164 C-21.77266602 135.14801758 -22.13102539 136.11610352 -22.50024414 137.11352539 C-22.83024414 138.10352539 -23.16024414 139.09352539 -23.50024414 140.11352539 C-33.73024414 140.11352539 -43.96024414 140.11352539 -54.50024414 140.11352539 C-51.94972536 131.82433936 -49.3573278 123.72790079 -46.30493164 115.63696289 C-45.91552902 114.59532486 -45.5261264 113.55368683 -45.12492371 112.48048401 C-43.87849912 109.14852009 -42.62694152 105.81851163 -41.37524414 102.48852539 C-40.51474824 100.1912262 -39.65464237 97.89378089 -38.79492188 95.59619141 C-37.52359253 92.198896 -36.25196217 88.80171668 -34.97880554 85.40510559 C-31.43475597 75.94971991 -27.92551786 66.48193283 -24.44311523 57.00366211 C-22.9157179 52.86199604 -21.36113465 48.74074449 -19.69555664 44.65258789 C-17.72058454 39.75893305 -15.89723691 34.81421617 -14.08227539 29.85961914 C-13.77723587 29.02694016 -13.47219635 28.19426117 -13.15791321 27.33634949 C-11.88226264 23.85001444 -10.60866503 20.36293749 -9.33740234 16.875 C-8.40058535 14.30649116 -7.46040192 11.73923484 -6.51977539 9.17211914 C-6.23125198 8.37744736 -5.94272858 7.58277557 -5.64546204 6.76402283 C-3.21696196 0.14606848 -3.21696196 0.14606848 0 0 Z " fill="#020202" transform="translate(1008.500244140625,82.886474609375)"/>
<path d="M0 0 C1.16781006 0.00523682 2.33562012 0.01047363 3.53881836 0.01586914 C4.79887695 0.0190918 6.05893555 0.02231445 7.35717773 0.02563477 C8.6976732 0.03399136 10.03816799 0.04245632 11.37866211 0.05102539 C12.72306153 0.05603879 14.06746271 0.06060197 15.41186523 0.06469727 C18.71334151 0.07653051 22.01473014 0.09301568 25.31616211 0.11352539 C25.31758713 1.33968567 25.31901215 2.56584595 25.32048035 3.8291626 C25.33719768 15.42192706 25.38011593 27.01434263 25.44825268 38.60692215 C25.48244684 44.56587949 25.50762092 50.52458251 25.51171875 56.48364258 C25.51601786 62.24161171 25.54461472 67.99900784 25.58959389 73.75679779 C25.60251734 75.94622197 25.60689499 78.13571489 25.6023159 80.32517242 C25.20125654 96.97407222 25.20125654 96.97407222 31.31616211 112.11352539 C38.3876034 118.50983403 46.72689866 118.47213732 55.89428711 118.39477539 C61.77453588 117.91146727 65.35417911 115.91642869 69.62866211 111.98852539 C73.86850091 104.76509633 74.76181386 97.12332001 74.74853516 88.89038086 C74.75872681 87.92331711 74.76891846 86.95625336 74.77941895 85.95988464 C74.80933494 82.80010016 74.81878204 79.64061986 74.82788086 76.48071289 C74.84474341 74.27539072 74.86289575 72.07007807 74.88227844 69.86477661 C74.92961323 64.08796158 74.95952936 58.31118516 74.98571777 52.53424072 C75.01560686 46.62829975 75.06210842 40.72249158 75.10717773 34.81665039 C75.19302282 23.24901177 75.26045149 11.68134567 75.31616211 0.11352539 C79.285472 0.08886658 83.25475245 0.07068516 87.22412109 0.05859375 C88.57536597 0.05355482 89.92660537 0.04672362 91.27783203 0.03808594 C93.21636645 0.0260012 95.15494011 0.02082711 97.09350586 0.01586914 C98.84522095 0.00801392 98.84522095 0.00801392 100.63232422 0 C103.31616211 0.11352539 103.31616211 0.11352539 104.31616211 1.11352539 C104.42211153 3.9972163 104.46293817 6.85708157 104.46142578 9.74145508 C104.46478439 10.6473085 104.46814301 11.55316193 104.47160339 12.48646545 C104.48115502 15.50279082 104.48305947 18.5190608 104.48413086 21.53540039 C104.48734362 23.6327517 104.4907077 25.73010278 104.49421692 27.82745361 C104.50022085 32.23938515 104.50205584 36.65129708 104.50146484 41.06323242 C104.50136385 46.68828898 104.51494457 52.3132175 104.53223705 57.93824387 C104.5434235 62.27942468 104.54538192 66.62057536 104.54485512 70.9617691 C104.54602799 73.03317959 104.55041046 75.10459103 104.55818748 77.17598724 C104.6240434 96.55107568 104.59635611 114.35007609 90.31616211 129.11352539 C77.33716447 141.16394434 62.61510927 142.97427442 45.61694336 142.39477539 C32.18190458 141.73746089 19.9008661 138.78911521 9.81616211 129.30102539 C-3.95569144 113.85183071 -4.28209132 95.78712957 -4.10961914 76.14868164 C-4.10468486 73.97676393 -4.10139275 71.80484193 -4.09965515 69.63291931 C-4.09207309 65.11890719 -4.07167512 60.60521879 -4.04052734 56.09130859 C-4.00059837 50.29401116 -3.98285504 44.49692144 -3.97321796 38.69950199 C-3.96328397 33.16170035 -3.94340486 27.62394958 -3.92211914 22.08618164 C-3.91872339 21.02794756 -3.91532764 19.96971348 -3.91182899 18.8794117 C-3.90032044 15.90929094 -3.88181909 12.93930536 -3.86083984 9.96923828 C-3.85815094 9.0815979 -3.85546204 8.19395752 -3.85269165 7.27941895 C-3.78924236 0.16028361 -3.78924236 0.16028361 0 0 Z " fill="#0A0D61" transform="translate(34.683837890625,82.886474609375)"/>
<path d="M0 0 C0.93328125 -0.00773437 1.8665625 -0.01546875 2.828125 -0.0234375 C17.61760026 0.01787388 31.34268891 4.70687439 42 15.25 C49.24366871 23.89869065 52 32.02187848 52 43.25 C42.43 43.25 32.86 43.25 23 43.25 C22.01 38.795 22.01 38.795 21 34.25 C19.55104355 30.26536977 17.35601653 28.56835835 13.8125 26.4375 C6.36537782 22.98186034 -2.72968143 22.84823622 -10.62890625 24.94921875 C-15.25947843 27.03165823 -18.38933967 29.92609382 -21 34.25 C-21.9180695 38.77535142 -21.44721854 42.2132661 -19.625 46.4375 C-11.72625505 54.90044102 -0.27452304 57.84062439 10.39257812 61.37304688 C26.42893745 66.84737666 41.88922662 74.59564019 50 90.25 C53.62960897 99.65398688 53.51901339 111.52712661 49.8125 120.875 C44.62904121 131.55956687 36.64872458 137.07654652 25.75 141.390625 C17.4973589 143.96957534 9.82912767 144.58757727 1.1875 144.5625 C-0.46088867 144.58666992 -0.46088867 144.58666992 -2.14257812 144.61132812 C-12.71665425 144.61755917 -22.46654646 142.74861495 -31.75 137.5625 C-32.38413818 137.21219727 -33.01827637 136.86189453 -33.67163086 136.50097656 C-44.80801914 130.1160949 -50.00548277 121.41686516 -54.375 109.5 C-55 106.25 -55 106.25 -55 98.25 C-45.76 98.25 -36.52 98.25 -27 98.25 C-25.7013439 101.49664025 -24.63837317 104.43652786 -23.6875 107.75 C-21.72484287 113.57996182 -18.48573036 116.66045048 -13.125 119.5625 C-3.79270554 123.37318691 6.63815101 122.02452416 15.828125 118.515625 C19.37738512 116.44735112 20.71926779 114.09219664 22 110.25 C22.27145949 107.93895037 22.27145949 107.93895037 22.3125 105.4375 C22.34988281 104.60605469 22.38726563 103.77460938 22.42578125 102.91796875 C21.82253843 99.13801604 20.45394397 97.18380901 18 94.25 C15.58865647 92.54889263 13.04897644 91.29933111 10.375 90.0625 C9.66005371 89.71864258 8.94510742 89.37478516 8.20849609 89.02050781 C3.65811265 86.88048109 -0.86092832 85.16819181 -5.7265625 83.875 C-9.97348745 82.7074605 -13.97057276 81.01358784 -18 79.25 C-19.64355469 78.54423828 -19.64355469 78.54423828 -21.3203125 77.82421875 C-34.7231053 71.65304273 -44.65012773 63.48108315 -50 49.25 C-52.79799776 40.36327757 -51.44058835 31.24432697 -47.5390625 22.97265625 C-41.32257536 11.97546961 -30.11373913 5.15453864 -18.10595703 1.70605469 C-12.03949868 0.18707935 -6.23299769 -0.05165468 0 0 Z " fill="#030303" transform="translate(1273,80.75)"/>
<path d="M0 0 C0.86602341 0.00359528 1.73204681 0.00719055 2.62431335 0.01089478 C3.98515549 0.01067574 3.98515549 0.01067574 5.37348938 0.01045227 C8.38737843 0.01115176 11.40120651 0.01894582 14.41508484 0.02676392 C16.49873826 0.02862797 18.58239212 0.03005193 20.66604614 0.03105164 C26.16191305 0.03487783 31.65775372 0.04470897 37.15361023 0.05575562 C42.75704086 0.06596757 48.36047572 0.07054879 53.96391296 0.07559204 C64.96718158 0.08633115 75.9704238 0.10392876 86.97367859 0.12442017 C86.97367859 8.04442017 86.97367859 15.96442017 86.97367859 24.12442017 C65.52367859 24.12442017 44.07367859 24.12442017 21.97367859 24.12442017 C21.97367859 35.01442017 21.97367859 45.90442017 21.97367859 57.12442017 C25.93238953 57.1128186 29.89110046 57.10121704 33.96977234 57.08926392 C37.78560811 57.08147484 41.60144301 57.07539723 45.4172821 57.06948853 C48.0780934 57.06444634 50.73890191 57.05761281 53.39970398 57.04898071 C57.21473375 57.03691008 61.02972703 57.03119087 64.84477234 57.02676392 C66.04266891 57.02160263 67.24056549 57.01644135 68.47476196 57.01112366 C70.1263607 57.01101036 70.1263607 57.01101036 71.81132507 57.01089478 C73.27359779 57.00756386 73.27359779 57.00756386 74.76541138 57.00416565 C76.97367859 57.12442017 76.97367859 57.12442017 77.97367859 58.12442017 C77.97367859 65.38442017 77.97367859 72.64442017 77.97367859 80.12442017 C59.49367859 80.12442017 41.01367859 80.12442017 21.97367859 80.12442017 C21.97367859 92.33442017 21.97367859 104.54442017 21.97367859 117.12442017 C43.42367859 117.12442017 64.87367859 117.12442017 86.97367859 117.12442017 C86.97367859 124.71442017 86.97367859 132.30442017 86.97367859 140.12442017 C55.95367859 140.12442017 24.93367859 140.12442017 -7.02632141 140.12442017 C-7.06662445 105.30707672 -7.06662445 105.30707672 -7.07514954 90.76309204 C-7.08109271 80.70441175 -7.08809489 70.64573981 -7.10176086 60.58706665 C-7.11170716 53.26274085 -7.11817471 45.9384218 -7.12040991 38.61408943 C-7.12171711 34.73351229 -7.12480353 30.85295447 -7.13205147 26.9723835 C-7.13881084 23.3240246 -7.14093855 19.67569306 -7.13942909 16.02732849 C-7.13983778 14.04153597 -7.14523342 12.05574647 -7.15074158 10.06996155 C-7.14936691 8.89901947 -7.14799225 7.72807739 -7.14657593 6.52165222 C-7.14795862 4.98548421 -7.14795862 4.98548421 -7.14936924 3.41828251 C-6.90126286 -1.20692615 -3.93762765 0.00690519 0 0 Z " fill="#0B0E61" transform="translate(487.0263214111328,82.87557983398438)"/>
<path d="M0 0 C10.48642267 8.64421328 16.6745345 20.86063776 18.5 34.21875 C18.51304201 35.88536564 18.51472875 37.55214842 18.5 39.21875 C14.53069011 39.24340881 10.56140966 39.26159023 6.59204102 39.27368164 C5.24079614 39.27872057 3.88955674 39.28555177 2.53833008 39.29418945 C0.59979566 39.30627419 -1.338778 39.31144828 -3.27734375 39.31640625 C-5.02905884 39.32426147 -5.02905884 39.32426147 -6.81616211 39.33227539 C-9.5 39.21875 -9.5 39.21875 -10.5 38.21875 C-10.8224271 36.66230647 -11.10799418 35.09815255 -11.375 33.53125 C-12.73724046 26.55101056 -15.03730807 21.91920585 -20.5 17.21875 C-28.11972265 12.42588629 -37.82155475 13.10537878 -46.5 14.21875 C-52.05762301 15.985026 -55.92783622 18.9816095 -59.375 23.65625 C-65.44038308 35.47878016 -66.20968288 48.03351422 -66.0625 61.03125 C-66.05890472 61.81946136 -66.05530945 62.60767273 -66.05160522 63.41976929 C-65.95678593 77.93043557 -65.44049602 92.6909417 -55.5 104.21875 C-48.38993569 110.00601165 -40.2726326 110.00389015 -31.5 109.21875 C-24.79469745 108.335353 -19.79642691 105.8432379 -15.3125 100.71875 C-12.71131051 96.02539995 -12.71131051 96.02539995 -10.5 85.21875 C-0.93 85.21875 8.64 85.21875 18.5 85.21875 C17.26472116 99.90484291 12.93249203 112.1687568 1.39453125 122.015625 C-10.3113632 130.95258846 -23.36086074 133.4019202 -37.6875 133.46875 C-39.31655273 133.4996875 -39.31655273 133.4996875 -40.97851562 133.53125 C-54.90360487 133.59815734 -67.20622635 129.0620814 -77.40234375 119.44140625 C-84.11104296 112.33293353 -88.35775732 104.42877166 -91.5 95.21875 C-91.89445313 94.10242188 -92.28890625 92.98609375 -92.6953125 91.8359375 C-95.62929928 81.84396852 -95.89861719 71.93440837 -95.9375 61.59375 C-95.9436734 60.89754547 -95.9498468 60.20134094 -95.95620728 59.48403931 C-96.06756732 39.92236614 -92.19642337 19.78641533 -78.40234375 4.96484375 C-57.28000421 -14.66738366 -23.63004566 -16.83640754 0 0 Z " fill="#090C60" transform="translate(682.5,91.78125)"/>
<path d="M0 0 C99 0 198 0 300 0 C300 7.92 300 15.84 300 24 C201 24 102 24 0 24 C0 16.08 0 8.16 0 0 Z " fill="#000000" transform="translate(33,248)"/>
<path d="M0 0 C37.62 0 75.24 0 114 0 C114 7.92 114 15.84 114 24 C99.81 24 85.62 24 71 24 C71 62.28 71 100.56 71 140 C61.43 140 51.86 140 42 140 C42 101.72 42 63.44 42 24 C28.14 24 14.28 24 0 24 C0 16.08 0 8.16 0 0 Z " fill="#0B0E62" transform="translate(350,83)"/>
<path d="M0 0 C9.57 0 19.14 0 29 0 C29 38.61 29 77.22 29 117 C49.13 117 69.26 117 90 117 C90 124.59 90 132.18 90 140 C60.3 140 30.6 140 0 140 C0 93.8 0 47.6 0 0 Z " fill="#010101" transform="translate(859,83)"/>
<path d="M0 0 C9.57 0 19.14 0 29 0 C29 46.2 29 92.4 29 140 C19.43 140 9.86 140 0 140 C0 93.8 0 47.6 0 0 Z " fill="#0A0D61" transform="translate(303,83)"/>
<path d="M0 0 C7.610625 -0.1546875 7.610625 -0.1546875 15.375 -0.3125 C16.95458496 -0.35802002 18.53416992 -0.40354004 20.16162109 -0.45043945 C28.37631921 -0.53093498 35.15151445 -0.04464337 42 5 C46.76827999 10.33593237 46.59511568 15.74401961 46.39453125 22.7421875 C45.87013157 27.07237891 44.96854576 28.86182306 42 32 C41.525625 32.50813232 41.05125 33.01626465 40.5625 33.53979492 C33.83317807 39.82855656 23.47176107 38.33720428 15 38.1875 C10.05 38.125625 5.1 38.06375 0 38 C0 25.46 0 12.92 0 0 Z " fill="#FCFCFC" transform="translate(1127,162)"/>
<path d="M0 0 C3.91875 -0.04125 7.8375 -0.0825 11.875 -0.125 C13.69620361 -0.15231201 13.69620361 -0.15231201 15.55419922 -0.18017578 C32.54000881 -0.26586498 32.54000881 -0.26586498 38.5 4.3125 C42.9776813 9.1260074 43.39656483 13.16579118 43.25390625 19.56640625 C42.80005428 23.91640285 40.92481984 26.75505022 38.375 30.1875 C30.8873652 35.90174761 21.93746008 35.37264391 12.9375 35.1875 C8.668125 35.125625 4.39875 35.06375 0 35 C0 23.45 0 11.9 0 0 Z " fill="#FCFCFC" transform="translate(1127,107)"/>
<path d="M0 0 C2.566833 2.566833 3.08294211 4.81184608 4.20703125 8.265625 C4.41430344 8.89547302 4.62157562 9.52532104 4.83512878 10.17425537 C5.49994414 12.1976918 6.15659311 14.22366021 6.8125 16.25 C7.45641689 18.22471081 8.10210592 20.19882559 8.74923706 22.17248535 C9.1798126 23.48573566 9.60894876 24.79945876 10.03665161 26.11364746 C11.90041842 31.8028461 13.96395008 37.40550972 16.08862305 43.00292969 C17 46 17 46 17 51 C5.78 51 -5.44 51 -17 51 C-15.10442995 44.04957647 -13.1814738 37.16937207 -11 30.3125 C-10.7525 29.52294922 -10.505 28.73339844 -10.25 27.91992188 C-8.85507011 23.51354179 -7.34557857 19.1769086 -5.69628906 14.85961914 C-4.28815389 11.09883176 -3.10087696 7.26201819 -1.8671875 3.44140625 C-1 1 -1 1 0 0 Z " fill="#F8F8F8" transform="translate(1019,120)"/>
<path d="M0 0 C0.80566406 0.09023437 1.61132812 0.18046875 2.44140625 0.2734375 C4.4375 0.625 4.4375 0.625 5.4375 1.625 C5.7675 0.965 6.0975 0.305 6.4375 -0.375 C7.7575 -0.375 9.0775 -0.375 10.4375 -0.375 C10.5119013 3.94828804 10.56621968 8.27123255 10.60229492 12.5949707 C10.61734066 14.06443782 10.63778238 15.53386034 10.66381836 17.00317383 C10.70038955 19.1207177 10.71726801 21.23766565 10.73046875 23.35546875 C10.7461792 24.62801514 10.76188965 25.90056152 10.77807617 27.21166992 C10.41331293 30.86740817 9.61429677 32.70686681 7.4375 35.625 C4.44504591 37.95246429 1.20867463 38.03082724 -2.5234375 37.9609375 C-5.90427208 37.40394176 -7.91439163 35.7434867 -10.5625 33.625 C-9.5725 32.635 -8.5825 31.645 -7.5625 30.625 C-6.5725 31.285 -5.5825 31.945 -4.5625 32.625 C0.14542018 33.11876513 0.14542018 33.11876513 4.375 31.375 C5.78348542 29.39635706 5.78348542 29.39635706 5.4375 25.625 C4.90125 25.955 4.365 26.285 3.8125 26.625 C0.75008861 27.91443638 -1.26189439 28.02915579 -4.5625 27.625 C-8.0542107 25.40300228 -10.05750071 23.45711273 -11.5625 19.625 C-12.17500946 14.63465973 -12.77035096 9.09458374 -10.51171875 4.4765625 C-7.18157635 0.44895664 -5.01593692 -0.59579347 0 0 Z " fill="#090909" transform="translate(798.5625,253.375)"/>
<path d="M0 0 C1.32 0 2.64 0 4 0 C4.33 4.29 4.66 8.58 5 13 C5.99 12.34 6.98 11.68 8 11 C11.30571478 10.56339616 13.81419387 10.28957272 16.75390625 12.05078125 C18.93804138 13.83493019 20.72909383 15.45818767 22 18 C23.03836143 30.32415865 23.03836143 30.32415865 20.1875 34.6875 C17.27215402 37.76943718 15.78900208 38.94364271 11.5 39.25 C8 39 8 39 5 37 C2.525 37.495 2.525 37.495 0 38 C0 25.46 0 12.92 0 0 Z " fill="#070707" transform="translate(916,242)"/>
<path d="M0 0 C4.33833918 2.25259919 7.20287362 4.4073437 9 9 C9.68426057 14.04325384 9.5739862 17.83076884 7.3125 22.4375 C3.90206481 26.21663088 1.65848505 27.78892008 -3.4375 28.4375 C-8.60267814 27.80317988 -11.47174483 25.73202252 -14.875 21.875 C-16.56484251 17.55651358 -16.65960983 13.5732948 -16 9 C-12.50026192 1.87090391 -7.94077865 -0.97518334 0 0 Z " fill="#121212" transform="translate(774,253)"/>
<path d="M0 0 C4.02014696 1.93276296 5.67179489 3.42017098 7.875 7.3125 C9.30140641 11.98794324 10.11945404 15.55674713 8.015625 20.1484375 C5.80252005 23.93257373 4.19607722 26.37933538 0 28 C-5.00744188 28.45522199 -7.99998792 28.1111205 -12 25 C-15.74261507 20.72272563 -16.35309702 16.80839625 -16.28125 11.28515625 C-15.71266263 6.6653839 -13.18315203 3.95931246 -9.6875 1.125 C-6.16108808 -0.35117243 -3.79611 -0.46618895 0 0 Z " fill="#101010" transform="translate(958,253)"/>
<path d="M0 0 C5.99275651 4.69702537 5.99275651 4.69702537 6.69921875 9.37109375 C6.88103927 13.99184281 6.65300609 17.10626515 4.625 21.3125 C1.16089887 25.05747419 -1.05593188 26.63768913 -6.1875 27.1875 C-9.99927679 26.77909534 -11.75541771 26.25590191 -14.6875 23.8125 C-18.43289104 18.64644339 -18.51840862 12.95757144 -17.6875 6.8125 C-16.06545062 3.5104709 -14.77870239 1.64030871 -11.875 -0.5625 C-7.63878597 -1.77284687 -4.04355691 -1.78668794 0 0 Z " fill="#0F0F0F" transform="translate(1045.6875,254.1875)"/>
<path d="M0 0 C3.36892491 1.23095333 5.42568691 2.38739937 7.875 5 C10.03753325 10.76675533 9.74406719 16.6851243 7.875 22.5 C4.76037103 26.65283863 1.59232258 27.73943812 -3.4375 28.5625 C-8.18913722 27.81224149 -10.89129113 25.60926369 -14 22 C-15.55255493 17.34233522 -15.73674997 12.85308693 -15 8 C-11.29455493 1.45561393 -7.45352552 -0.4969017 0 0 Z " fill="#0B0B0B" transform="translate(734,253)"/>
<path d="M0 0 C2.36293002 1.15632746 4.14983755 2.14983755 6 4 C6.15740605 5.70563778 6.25093392 7.41727244 6.31640625 9.12890625 C6.35830078 10.16337891 6.40019531 11.19785156 6.44335938 12.26367188 C6.48267578 13.35228516 6.52199219 14.44089844 6.5625 15.5625 C6.60568359 16.65498047 6.64886719 17.74746094 6.69335938 18.87304688 C6.79982068 21.58189564 6.90183516 24.29083992 7 27 C4.66666667 27 2.33333333 27 0 27 C-0.65613281 27.11859375 -1.31226563 27.2371875 -1.98828125 27.359375 C-6.02283887 28.03745191 -8.26028422 28.36985789 -12 26.5 C-14.63981649 23.20022938 -15.14805635 21.21960597 -15 17 C-12.84567661 14.321652 -11.07491161 12.53745581 -8 11 C-6.29297265 10.93003986 -4.58331997 10.91559846 -2.875 10.9375 C-1.96492187 10.94652344 -1.05484375 10.95554687 -0.1171875 10.96484375 C0.58148437 10.97644531 1.28015625 10.98804688 2 11 C1.34 9.02 0.68 7.04 0 5 C-2.97 5 -5.94 5 -9 5 C-9.33 5.99 -9.66 6.98 -10 8 C-11.32 8 -12.64 8 -14 8 C-13.6858889 5.06829636 -12.9610478 3.95750669 -10.9375 1.75 C-7.14671773 -0.50833837 -4.31328525 -0.74937885 0 0 Z " fill="#0B0B0B" transform="translate(540,253)"/>
<path d="M0 0 C2.32137945 2.26334497 3.5682467 4.13649339 5 7 C5 9.64 5 12.28 5 15 C-0.94 15 -6.88 15 -13 15 C-11.45957252 19.80304035 -11.45957252 19.80304035 -9 22 C-4.44755354 22.34358086 -1.11418186 21.99475484 3 20 C3 21.32 3 22.64 3 24 C-0.33072596 26.91438522 -3.59647057 27.59293312 -8.00390625 27.41796875 C-11.71909557 26.64003282 -13.42379365 24.76022109 -16 22 C-18.59805648 17.74863485 -18.69252178 12.84765247 -18 8 C-14.02196957 0.04393914 -8.48032855 -2.6471306 0 0 Z " fill="#0F0F0F" transform="translate(475,254)"/>
<path d="M0 0 C4.56944444 2.13888889 4.56944444 2.13888889 6 5 C6.15222973 6.66565749 6.24917215 8.33656496 6.31640625 10.0078125 C6.35830078 10.99394531 6.40019531 11.98007812 6.44335938 12.99609375 C6.48267578 14.02863281 6.52199219 15.06117188 6.5625 16.125 C6.60568359 17.16527344 6.64886719 18.20554687 6.69335938 19.27734375 C6.7996288 21.85142528 6.90166583 24.42560508 7 27 C4.33333333 27 1.66666667 27 -1 27 C-1.66 27.33 -2.32 27.66 -3 28 C-6.9086795 28.25491388 -9.70942498 28.23289019 -13 26 C-15.34549674 22.48175489 -15.57991403 21.14224306 -15 17 C-12.827365 14.42714276 -11.02006162 12.51003081 -8 11 C-6.29297265 10.93003986 -4.58331997 10.91559846 -2.875 10.9375 C-1.96492187 10.94652344 -1.05484375 10.95554687 -0.1171875 10.96484375 C0.58148437 10.97644531 1.28015625 10.98804688 2 11 C1.34 9.02 0.68 7.04 0 5 C-1.27875 4.938125 -2.5575 4.87625 -3.875 4.8125 C-4.95394531 4.76029297 -4.95394531 4.76029297 -6.0546875 4.70703125 C-6.69664062 4.80371094 -7.33859375 4.90039062 -8 5 C-8.99 6.485 -8.99 6.485 -10 8 C-11.32 8 -12.64 8 -14 8 C-13.6858889 5.06829636 -12.9610478 3.95750669 -10.9375 1.75 C-7.14167336 -0.51134353 -4.31782654 -0.74144496 0 0 Z " fill="#090909" transform="translate(1001,253)"/>
<path d="M0 0 C4.56944444 2.13888889 4.56944444 2.13888889 6 5 C6.15222973 6.66565749 6.24917215 8.33656496 6.31640625 10.0078125 C6.35830078 10.99394531 6.40019531 11.98007812 6.44335938 12.99609375 C6.48267578 14.02863281 6.52199219 15.06117188 6.5625 16.125 C6.60568359 17.16527344 6.64886719 18.20554687 6.69335938 19.27734375 C6.7996288 21.85142528 6.90166583 24.42560508 7 27 C4.33333333 27 1.66666667 27 -1 27 C-1.66 27.33 -2.32 27.66 -3 28 C-6.9086795 28.25491388 -9.70942498 28.23289019 -13 26 C-15.34549674 22.48175489 -15.57991403 21.14224306 -15 17 C-12.827365 14.42714276 -11.02006162 12.51003081 -8 11 C-6.29297265 10.93003986 -4.58331997 10.91559846 -2.875 10.9375 C-1.96492187 10.94652344 -1.05484375 10.95554687 -0.1171875 10.96484375 C0.58148437 10.97644531 1.28015625 10.98804688 2 11 C1.34 9.02 0.68 7.04 0 5 C-1.27875 4.938125 -2.5575 4.87625 -3.875 4.8125 C-4.95394531 4.76029297 -4.95394531 4.76029297 -6.0546875 4.70703125 C-6.69664062 4.80371094 -7.33859375 4.90039062 -8 5 C-8.99 6.485 -8.99 6.485 -10 8 C-11.32 8 -12.64 8 -14 8 C-13.6858889 5.06829636 -12.9610478 3.95750669 -10.9375 1.75 C-7.14167336 -0.51134353 -4.31782654 -0.74144496 0 0 Z " fill="#090909" transform="translate(903,253)"/>
<path d="M0 0 C2.47807588 1.79660501 3.59092418 3.01140009 4.75 5.8125 C5.09786515 8.85632006 5 11.93636642 5 15 C-0.94 15 -6.88 15 -13 15 C-11.34922098 18.75170424 -11.34922098 18.75170424 -9 22 C-2.6850015 22.41453713 -2.6850015 22.41453713 3 20 C3 21.32 3 22.64 3 24 C0.19484988 26.38012737 -1.78445385 26.97256685 -5.4375 27.4375 C-9.7426591 26.90879625 -11.72712679 25.82657232 -15 23 C-17.92943165 18.60585253 -18.55068312 15.23148965 -18 10 C-16.72582683 5.82354349 -15.54171223 3.51591641 -12.375 0.5 C-7.93142478 -1.47492232 -4.63178539 -1.38249108 0 0 Z " fill="#0D0D0D" transform="translate(1101,254)"/>
<path d="M0 0 C2.96922861 1.79349379 5.42452071 3.84904142 7 7 C7 9.97 7 12.94 7 16 C1.06 16 -4.88 16 -11 16 C-8.83333333 21.83333333 -8.83333333 21.83333333 -6 23 C-1.6349683 23.24250176 1.18752042 23.11804421 5 21 C5.66 21.33 6.32 21.66 7 22 C6.0114653 24.69600373 5.34022364 25.80558649 2.8125 27.25 C-2.2219995 28.5925332 -5.64538859 28.71564376 -10.3125 26.25 C-13.72423515 23.3936636 -14.83135048 21.59231433 -15.30078125 17.16015625 C-15.30464844 16.13792969 -15.30851563 15.11570312 -15.3125 14.0625 C-15.32925781 13.04285156 -15.34601562 12.02320313 -15.36328125 10.97265625 C-14.82574221 6.57408408 -13.17513885 3.94663963 -9.75 1.1875 C-6.15659371 -0.36419817 -3.88369763 -0.54508037 0 0 Z " fill="#0B0B0B" transform="translate(628,253)"/>
<path d="M0 0 C1.65 0 3.3 0 5 0 C5.01458252 0.86278564 5.02916504 1.72557129 5.04418945 2.61450195 C5.10527754 5.81849647 5.17943549 9.02184625 5.26245117 12.2253418 C5.29568549 13.61129377 5.32372226 14.99738061 5.34643555 16.38354492 C5.38000617 18.37706843 5.43388 20.37021741 5.48828125 22.36328125 C5.51446533 23.56251221 5.54064941 24.76174316 5.56762695 25.99731445 C5.75355447 28.98390419 5.75355447 28.98390419 7.41088867 30.88989258 C9.39663913 32.27708068 10.59152026 32.40236909 13 32.375 C13.680625 32.38273437 14.36125 32.39046875 15.0625 32.3984375 C17.67569786 31.861046 18.40071391 31.14225188 20 29 C20.50768043 25.9031714 20.50768043 25.9031714 20.51171875 22.36328125 C20.54716797 21.06455078 20.58261719 19.76582031 20.61914062 18.42773438 C20.6422405 17.05599483 20.6650229 15.6842499 20.6875 14.3125 C20.72067542 12.92900393 20.75516531 11.54553871 20.79101562 10.16210938 C20.87363241 6.77482117 20.94274058 3.38779643 21 0 C22.65 0 24.3 0 26 0 C26.09941096 4.0200263 26.17172063 8.03956963 26.21972656 12.06054688 C26.23975319 13.42623368 26.26698332 14.79183569 26.30175781 16.15722656 C26.35066432 18.12787102 26.37091347 20.09915983 26.390625 22.0703125 C26.41157227 23.25383301 26.43251953 24.43735352 26.45410156 25.65673828 C25.90497361 29.699619 24.52166787 31.83305097 22 35 C17.80377876 37.63762478 12.81265027 37.68631104 8 37 C4.57061786 35.31648513 2.6104168 34.18643113 0.85205078 30.76879883 C-0.15077658 27.51004092 -0.22643838 24.7950023 -0.1953125 21.38671875 C-0.18886719 20.13955078 -0.18242187 18.89238281 -0.17578125 17.60742188 C-0.15902344 16.31384766 -0.14226562 15.02027344 -0.125 13.6875 C-0.11597656 12.37458984 -0.10695313 11.06167969 -0.09765625 9.70898438 C-0.07411797 6.47247087 -0.0412352 3.23632851 0 0 Z " fill="#161616" transform="translate(364,244)"/>
<path d="M0 0 C1.32 0 2.64 0 4 0 C4.33 4.29 4.66 8.58 5 13 C6.32 12.34 7.64 11.68 9 11 C12.85681974 10.67859836 15.83679853 10.6275989 19 13 C21.74177131 17.82240627 21.22367847 22.9421139 21.125 28.3125 C21.11597656 29.24384766 21.10695313 30.17519531 21.09765625 31.13476562 C21.07418263 33.4234436 21.04134729 35.71158672 21 38 C19.35 38 17.7 38 16 38 C15.97494385 37.36908447 15.9498877 36.73816895 15.92407227 36.08813477 C15.80845863 33.24603175 15.68557684 30.40428917 15.5625 27.5625 C15.52318359 26.56927734 15.48386719 25.57605469 15.44335938 24.55273438 C15.38051758 23.13637695 15.38051758 23.13637695 15.31640625 21.69140625 C15.27974854 20.81685791 15.24309082 19.94230957 15.20532227 19.04125977 C15.21818934 17.0072598 15.21818934 17.0072598 14 16 C9.96839809 15.73706944 8.44107266 15.70595156 5 18 C4.49297483 20.12106795 4.49297483 20.12106795 4.48828125 22.5703125 C4.45283203 23.46621094 4.41738281 24.36210937 4.38085938 25.28515625 C4.35830078 26.22230469 4.33574219 27.15945313 4.3125 28.125 C4.27833984 29.06988281 4.24417969 30.01476562 4.20898438 30.98828125 C4.12635888 33.32540253 4.05726012 35.66214191 4 38 C2.68 38 1.36 38 0 38 C0 25.46 0 12.92 0 0 Z " fill="#161616" transform="translate(666,242)"/>
<path d="M0 0 C1.65 0 3.3 0 5 0 C6.98 5.94 8.96 11.88 11 18 C12.98 12.06 14.96 6.12 17 0 C18.65 0 20.3 0 22 0 C13.06744933 33.76774837 13.06744933 33.76774837 6 38 C3.25 38.1875 3.25 38.1875 1 38 C1 36.68 1 35.36 1 34 C3.97 33.505 3.97 33.505 7 33 C8.04145837 27.57939738 8.30193397 23.58449279 6.03515625 18.38671875 C4.64674488 15.18551366 3.48454842 11.90965527 2.3125 8.625 C1.87550781 7.42101562 1.43851563 6.21703125 0.98828125 4.9765625 C0 2 0 2 0 0 Z " fill="#131313" transform="translate(813,253)"/>
<path d="M0 0 C1.65 0 3.3 0 5 0 C5.33 0.66 5.66 1.32 6 2 C6.99 1.34 7.98 0.68 9 0 C12.80393701 -0.42265967 15.23351172 -0.36499442 18.70703125 1.2890625 C22.38980718 5.64314512 21.5291495 10.25043575 21.3125 15.75 C21.28994141 16.82894531 21.26738281 17.90789062 21.24414062 19.01953125 C21.1852565 21.6810935 21.10307001 24.33984228 21 27 C19.68 27 18.36 27 17 27 C16.97494385 26.36908447 16.9498877 25.73816895 16.92407227 25.08813477 C16.80845863 22.24603175 16.68557684 19.40428917 16.5625 16.5625 C16.52318359 15.56927734 16.48386719 14.57605469 16.44335938 13.55273438 C16.40146484 12.60849609 16.35957031 11.66425781 16.31640625 10.69140625 C16.27974854 9.81685791 16.24309082 8.94230957 16.20532227 8.04125977 C16.21818934 6.0072598 16.21818934 6.0072598 15 5 C11.54178598 4.74996036 11.54178598 4.74996036 8 5 C5.56085508 7.43914492 5.71337477 8.21446431 5.5859375 11.5703125 C5.54726563 12.46621094 5.50859375 13.36210937 5.46875 14.28515625 C5.4378125 15.22230469 5.406875 16.15945313 5.375 17.125 C5.33632813 18.06988281 5.29765625 19.01476562 5.2578125 19.98828125 C5.16338654 22.32532375 5.07781606 24.66235501 5 27 C3.35 27 1.7 27 0 27 C0 18.09 0 9.18 0 0 Z " fill="#1D1D1D" transform="translate(396,253)"/>
<path d="M0 0 C1.32 0 2.64 0 4 0 C4 0.99 4 1.98 4 3 C4.680625 2.505 5.36125 2.01 6.0625 1.5 C9.74788284 -0.38189762 11.90846373 -0.58450518 16 0 C18.69921875 1.82421875 18.69921875 1.82421875 21 5 C21.61130895 8.78981621 21.47161267 12.48645235 21.3125 16.3125 C21.28994141 17.33923828 21.26738281 18.36597656 21.24414062 19.42382812 C21.18537575 21.9507179 21.10327849 24.47460255 21 27 C19.35 27 17.7 27 16 27 C15.97494385 26.36908447 15.9498877 25.73816895 15.92407227 25.08813477 C15.80845863 22.24603175 15.68557684 19.40428917 15.5625 16.5625 C15.52318359 15.56927734 15.48386719 14.57605469 15.44335938 13.55273438 C15.38051758 12.13637695 15.38051758 12.13637695 15.31640625 10.69140625 C15.27974854 9.81685791 15.24309082 8.94230957 15.20532227 8.04125977 C15.21818934 6.0072598 15.21818934 6.0072598 14 5 C9.90856539 4.55312623 9.90856539 4.55312623 6.33666992 6.23754883 C4.67128577 8.43342247 4.58010352 9.71291525 4.48828125 12.44921875 C4.45283203 13.29677734 4.41738281 14.14433594 4.38085938 15.01757812 C4.35830078 15.89865234 4.33574219 16.77972656 4.3125 17.6875 C4.27833984 18.58017578 4.24417969 19.47285156 4.20898438 20.39257812 C4.12654352 22.59492671 4.05738449 24.79687938 4 27 C2.68 27 1.36 27 0 27 C0 18.09 0 9.18 0 0 Z " fill="#0D0D0D" transform="translate(693,253)"/>
<path d="M0 0 C3.44121198 1.45295617 4.6657595 2.31560279 6.3125 5.6875 C6.6528125 6.8321875 6.6528125 6.8321875 7 8 C4.625 8.1875 4.625 8.1875 2 8 C1.34 7.01 0.68 6.02 0 5 C-3.58357241 4.74984127 -3.58357241 4.74984127 -7 5 C-7.33 6.32 -7.66 7.64 -8 9 C-6.453125 9.6496875 -6.453125 9.6496875 -4.875 10.3125 C4.22620107 14.22620107 4.22620107 14.22620107 7 17 C7.375 19.875 7.375 19.875 7 23 C4.76793569 25.84780619 3.45007001 26.84997666 0 28 C-5.00401435 28.37066773 -7.98301324 28.09881835 -12 25 C-14 22 -14 22 -14 19 C-12.68 19 -11.36 19 -10 19 C-9.4121875 19.99 -9.4121875 19.99 -8.8125 21 C-7.19994706 23.2179095 -7.19994706 23.2179095 -4.8125 23.265625 C-2.53035621 23.2513616 -0.27543967 23.1717313 2 23 C1.92378512 20.55045938 1.92378512 20.55045938 1 18 C-1.42268902 16.62845737 -1.42268902 16.62845737 -4.375 15.875 C-10.80976551 13.95645514 -10.80976551 13.95645514 -13 11 C-13.5625 7.5625 -13.5625 7.5625 -13 4 C-8.89669767 0.09685876 -5.56064386 -0.70771831 0 0 Z " fill="#0D0D0D" transform="translate(1124,253)"/>
<path d="M0 0 C3.44121198 1.45295617 4.6657595 2.31560279 6.3125 5.6875 C6.6528125 6.8321875 6.6528125 6.8321875 7 8 C4.625 8.1875 4.625 8.1875 2 8 C1.34 7.01 0.68 6.02 0 5 C-3.58357241 4.74984127 -3.58357241 4.74984127 -7 5 C-7.33 6.32 -7.66 7.64 -8 9 C-6.453125 9.6496875 -6.453125 9.6496875 -4.875 10.3125 C4.22620107 14.22620107 4.22620107 14.22620107 7 17 C7.375 19.875 7.375 19.875 7 23 C4.76793569 25.84780619 3.45007001 26.84997666 0 28 C-5.00401435 28.37066773 -7.98301324 28.09881835 -12 25 C-14 22 -14 22 -14 19 C-12.68 19 -11.36 19 -10 19 C-9.4121875 19.99 -9.4121875 19.99 -8.8125 21 C-7.19994706 23.2179095 -7.19994706 23.2179095 -4.8125 23.265625 C-2.53035621 23.2513616 -0.27543967 23.1717313 2 23 C1.92378512 20.55045938 1.92378512 20.55045938 1 18 C-1.42268902 16.62845737 -1.42268902 16.62845737 -4.375 15.875 C-10.80976551 13.95645514 -10.80976551 13.95645514 -13 11 C-13.5625 7.5625 -13.5625 7.5625 -13 4 C-8.89669767 0.09685876 -5.56064386 -0.70771831 0 0 Z " fill="#0D0D0D" transform="translate(514,253)"/>
<path d="M0 0 C9.24 0 18.48 0 28 0 C28 1.32 28 2.64 28 4 C24.37 4 20.74 4 17 4 C17 14.56 17 25.12 17 36 C15.35 36 13.7 36 12 36 C12 25.44 12 14.88 12 4 C8.04 4 4.08 4 0 4 C0 2.68 0 1.36 0 0 Z " fill="#0D0D0D" transform="translate(584,244)"/>
<path d="M0 0 C2.30275556 1.8670991 3.67823871 3.35647741 5 6 C5.3506291 11.34709374 5.44403637 14.62872307 2 19 C-0.84083641 20.42041821 -2.85477278 20.31452272 -6 20 C-8.84780619 17.76793569 -9.84997666 16.45007001 -11 13 C-11.37032807 8.00057109 -11.0799137 5.02757945 -8 1 C-5.15916359 -0.42041821 -3.14522722 -0.31452272 0 0 Z " fill="#F3F3F3" transform="translate(734,257)"/>
<path d="M0 0 C3.5 0.625 3.5 0.625 5.9375 2.5 C8.15403218 6.93306436 8.2734987 10.76072981 7.5 15.625 C5.9375 18.75 5.9375 18.75 3.5 20.625 C0 21.25 0 21.25 -3.5 20.625 C-6.34142547 18.4392881 -7.31568909 16.78406862 -7.87890625 13.2421875 C-8.07260706 9.05575071 -7.82855364 6.28210727 -5.9375 2.5 C-3.5 0.625 -3.5 0.625 0 0 Z " fill="#F7F7F7" transform="translate(954.5,256.375)"/>
<path d="M0 0 C3.5 0.625 3.5 0.625 5.9375 2.5 C8.15403218 6.93306436 8.2734987 10.76072981 7.5 15.625 C5.9375 18.75 5.9375 18.75 3.5 20.625 C0 21.25 0 21.25 -3.5 20.625 C-6.34142547 18.4392881 -7.31568909 16.78406862 -7.87890625 13.2421875 C-8.07260706 9.05575071 -7.82855364 6.28210727 -5.9375 2.5 C-3.5 0.625 -3.5 0.625 0 0 Z " fill="#F8F8F8" transform="translate(770.5,256.375)"/>
<path d="M0 0 C2.375 1.3125 2.375 1.3125 4 4 C4.63895937 9.26342777 4.94687152 14.40204444 2 19 C-0.88861709 20.44430855 -2.79647701 20.37688506 -6 20 C-8.875 18 -8.875 18 -11 15 C-11.71621062 9.3598414 -11.10655925 5.89880498 -8 1 C-5.15916359 -0.42041821 -3.14522722 -0.31452272 0 0 Z " fill="#F7F7F7" transform="translate(1043,257)"/>
<path d="M0 0 C2.625 2.375 2.625 2.375 3.5 5.625 C3.54125 6.5325 3.5825 7.44 3.625 8.375 C2.305 8.375 0.985 8.375 -0.375 8.375 C-0.808125 7.55 -1.24125 6.725 -1.6875 5.875 C-2.244375 5.05 -2.80125 4.225 -3.375 3.375 C-6.875 2.625 -6.875 2.625 -10.375 3.375 C-12.45955355 5.49317538 -13.29213082 6.86803562 -13.7734375 9.8125 C-13.76570312 10.658125 -13.75796875 11.50375 -13.75 12.375 C-13.75773438 13.220625 -13.76546875 14.06625 -13.7734375 14.9375 C-13.29216602 17.88174905 -12.46199687 19.25915063 -10.375 21.375 C-6.875 22.04166667 -6.875 22.04166667 -3.375 21.375 C-1.66967677 19.43490478 -1.66967677 19.43490478 -0.375 17.375 C0.945 17.375 2.265 17.375 3.625 17.375 C3.5 19.625 3.5 19.625 2.625 22.375 C-0.54954874 25.17162627 -2.67706615 26.27529516 -6.875 26.875 C-11.02392101 26.282297 -13.14450042 25.0044764 -16.375 22.375 C-18.79636226 18.74295662 -18.70429639 16.82356165 -18.75 12.5 C-18.77835938 11.28570312 -18.80671875 10.07140625 -18.8359375 8.8203125 C-18.29913163 4.80791607 -17.17122863 3.23394778 -14.375 0.375 C-9.81454559 -2.92739802 -4.87516674 -2.34730251 0 0 Z " fill="#0C0C0C" transform="translate(657.375,254.625)"/>
<path d="M0 0 C2.6857562 2.13483185 3.77336817 3.72899264 4.37890625 7.125 C4.59444117 11.24102179 4.10721419 13.7649535 2.375 17.5625 C0 20 0 20 -3 20.5625 C-6.34914067 19.93453612 -7.64287905 19.437193 -10 17 C-10.49609375 13.75 -10.49609375 13.75 -10.4375 10 C-10.43621094 8.7625 -10.43492187 7.525 -10.43359375 6.25 C-10 3 -10 3 -8.6875 1.09375 C-5.74243688 -0.81508721 -3.38383278 -0.4749239 0 0 Z " fill="#F3F3F3" transform="translate(930,257)"/>
<path d="M0 0 C3.625 0.25 3.625 0.25 5.328125 1.328125 C7.30049678 4.2510374 7.0217623 6.76803223 7 10.25 C7.00773438 11.4875 7.01546875 12.725 7.0234375 14 C6.625 17.25 6.625 17.25 5.31640625 19.15234375 C2.33002436 21.09038835 0.05347222 20.79133772 -3.375 20.25 C-6.35643259 17.11567343 -7.27661086 15.03711314 -7.8125 10.75 C-7.12131015 5.22048118 -5.91498664 0.43814716 0 0 Z " fill="#F4F4F4" transform="translate(798.375,256.75)"/>
<path d="M0 0 C1.65 0 3.3 0 5 0 C5 2.31 5 4.62 5 7 C6.65 7 8.3 7 10 7 C10 8.32 10 9.64 10 11 C8.35 11 6.7 11 5 11 C5.33 17.27 5.66 23.54 6 30 C7.32 30.33 8.64 30.66 10 31 C10 32.32 10 33.64 10 35 C6.69108339 35.3008106 4.66871766 35.42033681 1.8125 33.625 C-1.00517167 29.54423413 -0.42585559 25.57926501 -0.25 20.75 C-0.23195313 19.81414062 -0.21390625 18.87828125 -0.1953125 17.9140625 C-0.14825673 15.60832985 -0.08253713 13.30469055 0 11 C-1.65 11 -3.3 11 -5 11 C-5 9.68 -5 8.36 -5 7 C-3.35 7 -1.7 7 0 7 C0 4.69 0 2.38 0 0 Z " fill="#181818" transform="translate(1015,246)"/>
<path d="M0 0 C1.32 0 2.64 0 4 0 C4 10.56 4 21.12 4 32 C9.94 32 15.88 32 22 32 C22 33.32 22 34.64 22 36 C14.74 36 7.48 36 0 36 C0 24.12 0 12.24 0 0 Z " fill="#010101" transform="translate(863,244)"/>
<path d="M0 0 C2.475 0.495 2.475 0.495 5 1 C6.98 6.94 8.96 12.88 11 19 C12.6025613 13.49597048 12.6025613 13.49597048 14.20092773 7.99072266 C14.40145752 7.3054248 14.6019873 6.62012695 14.80859375 5.9140625 C15.01282959 5.2123291 15.21706543 4.5105957 15.42749023 3.78759766 C16 2 16 2 17 0 C18.65 0 20.3 0 22 0 C19.03 8.91 16.06 17.82 13 27 C11.68 27 10.36 27 9 27 C6.71736948 21.81781178 4.69906319 16.58827509 2.8125 11.25 C2.53986328 10.49589844 2.26722656 9.74179687 1.98632812 8.96484375 C0.88694294 5.86231814 0 3.31676381 0 0 Z " fill="#121212" transform="translate(433,253)"/>
<path d="M0 0 C1.65 0 3.3 0 5 0 C5 12.54 5 25.08 5 38 C3.35 38 1.7 38 0 38 C0 25.46 0 12.92 0 0 Z " fill="#181818" transform="translate(553,242)"/>
<path d="M0 0 C4.33333333 0 8.66666667 0 13 0 C13 1.32 13 2.64 13 4 C9.535 5.485 9.535 5.485 6 7 C5.67 13.6 5.34 20.2 5 27 C3.35 27 1.7 27 0 27 C0 18.09 0 9.18 0 0 Z " fill="#161616" transform="translate(1057,253)"/>
<path d="M0 0 C1.65 0 3.3 0 5 0 C5.33 0.66 5.66 1.32 6 2 C6.66 1.34 7.32 0.68 8 0 C10.625 -0.125 10.625 -0.125 13 0 C13 1.32 13 2.64 13 4 C9.535 5.485 9.535 5.485 6 7 C5.67 13.6 5.34 20.2 5 27 C3.35 27 1.7 27 0 27 C0 18.09 0 9.18 0 0 Z " fill="#151515" transform="translate(484,253)"/>
<path d="M0 0 C1.32 0 2.64 0 4 0 C4.04898438 0.92683594 4.09796875 1.85367188 4.1484375 2.80859375 C4.22320313 4.00613281 4.29796875 5.20367187 4.375 6.4375 C4.47941406 8.22994141 4.47941406 8.22994141 4.5859375 10.05859375 C4.72257813 11.02925781 4.85921875 11.99992188 5 13 C5.66 13.33 6.32 13.66 7 14 C6.67854004 14.56170898 6.35708008 15.12341797 6.02587891 15.70214844 C4.90241943 18.21856933 4.69140607 20.02344205 4.5859375 22.765625 C4.54726563 23.65507812 4.50859375 24.54453125 4.46875 25.4609375 C4.4378125 26.38132812 4.406875 27.30171875 4.375 28.25 C4.31699219 29.65378906 4.31699219 29.65378906 4.2578125 31.0859375 C4.16375156 33.39043054 4.07810601 35.69492013 4 38 C2.68 38 1.36 38 0 38 C0 25.46 0 12.92 0 0 Z " fill="#030303" transform="translate(666,242)"/>
<path d="M0 0 C1.32 0 2.64 0 4 0 C4 12.54 4 25.08 4 38 C2.68 38 1.36 38 0 38 C0 25.46 0 12.92 0 0 Z " fill="#000000" transform="translate(749,242)"/>
<path d="M0 0 C1.32 0 2.64 0 4 0 C4.33 0.66 4.66 1.32 5 2 C5.99 1.34 6.98 0.68 8 0 C9.32 0 10.64 0 12 0 C12 1.32 12 2.64 12 4 C8.535 5.485 8.535 5.485 5 7 C4.67 13.6 4.34 20.2 4 27 C2.68 27 1.36 27 0 27 C0 18.09 0 9.18 0 0 Z " fill="#030303" transform="translate(972,253)"/>
<path d="M0 0 C4.37820683 0.67937692 5.74986048 1.17796608 8.625 4.5625 C9.25527135 8.49204102 9.09376269 12.3458318 8.9375 16.3125 C8.90366211 17.93091797 8.90366211 17.93091797 8.86914062 19.58203125 C8.8102565 22.2435935 8.72807001 24.90234228 8.625 27.5625 C7.305 27.5625 5.985 27.5625 4.625 27.5625 C4.59994385 26.93158447 4.5748877 26.30066895 4.54907227 25.65063477 C4.43345863 22.80853175 4.31057684 19.96678917 4.1875 17.125 C4.14818359 16.13177734 4.10886719 15.13855469 4.06835938 14.11523438 C4.00551758 12.69887695 4.00551758 12.69887695 3.94140625 11.25390625 C3.90474854 10.37935791 3.86809082 9.50480957 3.83032227 8.60375977 C3.84318934 6.5697598 3.84318934 6.5697598 2.625 5.5625 C1.10571962 5.49070036 -0.41667482 5.47857993 -1.9375 5.5 C-3.17693359 5.51353516 -3.17693359 5.51353516 -4.44140625 5.52734375 C-5.39853516 5.54474609 -5.39853516 5.54474609 -6.375 5.5625 C-4.75351101 1.74723178 -4.20644268 0.70107378 0 0 Z " fill="#040404" transform="translate(408.375,252.4375)"/>
<path d="M0 0 C1.32 0 2.64 0 4 0 C4 8.91 4 17.82 4 27 C2.68 27 1.36 27 0 27 C0 18.09 0 9.18 0 0 Z " fill="#000000" transform="translate(1074,253)"/>
<path d="M0 0 C1.32 0 2.64 0 4 0 C4 8.91 4 17.82 4 27 C2.68 27 1.36 27 0 27 C0 18.09 0 9.18 0 0 Z " fill="#020202" transform="translate(424,253)"/>
<path d="M0 0 C0.48468708 6.42210386 0.48468708 6.42210386 -1.625 8.9375 C-4.62103352 10.27783078 -6.75109093 10.35314229 -10 10 C-12 8 -12 8 -12.375 5.5625 C-12 3 -12 3 -10.5 1.1875 C-6.87730459 -0.53328032 -3.98961898 -0.19948095 0 0 Z " fill="#EEEEEE" transform="translate(1003,267)"/>
<path d="M0 0 C0.48468708 6.42210386 0.48468708 6.42210386 -1.625 8.9375 C-4.62103352 10.27783078 -6.75109093 10.35314229 -10 10 C-12 8 -12 8 -12.375 5.5625 C-12 3 -12 3 -10.5 1.1875 C-6.87730459 -0.53328032 -3.98961898 -0.19948095 0 0 Z " fill="#EEEEEE" transform="translate(905,267)"/>
<path d="M0 0 C0.48468708 6.42210386 0.48468708 6.42210386 -1.625 8.9375 C-4.62103352 10.27783078 -6.75109093 10.35314229 -10 10 C-12 8 -12 8 -12.375 5.5625 C-12 3 -12 3 -10.5 1.1875 C-6.87730459 -0.53328032 -3.98961898 -0.19948095 0 0 Z " fill="#EFEFEF" transform="translate(542,267)"/>
<path d="M0 0 C3.125 0.375 3.125 0.375 5.5 2.125 C7.125 4.375 7.125 4.375 7.125 8.375 C2.835 8.375 -1.455 8.375 -5.875 8.375 C-4.5787037 0.59722222 -4.5787037 0.59722222 0 0 Z " fill="#F4F4F4" transform="translate(623.875,256.625)"/>
<path d="M0 0 C1.875 1.1875 1.875 1.1875 3 3 C3 4.65 3 6.3 3 8 C-1.29 8 -5.58 8 -10 8 C-9 3 -9 3 -7.8125 1.1875 C-5.11075568 -0.58260835 -3.15326426 -0.39415803 0 0 Z " fill="#F6F6F6" transform="translate(472,257)"/>
<path d="M0 0 C1.875 1.1875 1.875 1.1875 3 3 C3 4.65 3 6.3 3 8 C-1.29 8 -5.58 8 -10 8 C-9 3 -9 3 -7.8125 1.1875 C-5.11075568 -0.58260835 -3.15326426 -0.39415803 0 0 Z " fill="#F7F7F7" transform="translate(1098,257)"/>
<path d="M0 0 C1.65 0.33 3.3 0.66 5 1 C4.67 2.32 4.34 3.64 4 5 C2.35 4.67 0.7 4.34 -1 4 C-0.67 2.68 -0.34 1.36 0 0 Z " fill="#232323" transform="translate(1074,243)"/>
<path d="M0 0 C2.475 0.495 2.475 0.495 5 1 C4.67 2.32 4.34 3.64 4 5 C2.68 4.67 1.36 4.34 0 4 C0 2.68 0 1.36 0 0 Z " fill="#0E0E0E" transform="translate(424,243)"/>
</svg>
