<?xml version="1.0" encoding="UTF-8"?>
<svg version="1.1" xmlns="http://www.w3.org/2000/svg" width="1704" height="467">
<path d="M0 0 C562.32 0 1124.64 0 1704 0 C1704 154.11 1704 308.22 1704 467 C1141.68 467 579.36 467 0 467 C0 312.89 0 158.78 0 0 Z " fill="#FDFDFD" transform="translate(0,0)"/>
<path d="M0 0 C27.28006526 4.18085291 56.24287685 29.59516246 72 51 C95.15737229 82.89460628 106.86919145 122.56531715 101.25 162 C100.85926553 164.00522759 100.44052568 166.00511949 100 168 C99.72756222 169.40203293 99.45686418 170.80440456 99.1875 172.20703125 C92.23972568 207.1031262 72.27235911 240.56506753 43.5 261.875 C42.47374512 262.64046143 42.47374512 262.64046143 41.42675781 263.42138672 C19.7472341 279.3306383 19.7472341 279.3306383 13.875 278.8125 C12 278 12 278 10 275 C10.25821116 271.12683266 12.61731103 268.90390218 15 266 C16.93795159 260.18614524 17.02055692 254.07891224 14.3125 248.5625 C10.93814016 244.8233445 7.63386595 241.2836471 2.4609375 240.7265625 C-3.77865853 240.52120871 -8.34578886 240.71079476 -13.44140625 244.53515625 C-17.62295175 248.46518022 -18.22156665 252.34113722 -18.5 257.875 C-18.34051213 263.71080613 -17.07379701 267.7551249 -13 272 C-9.90216594 273.97734089 -7.37939 274.91073177 -3.8125 275.75 C-0.65894556 277.15157975 -0.41635759 277.60576959 0.875 280.625 C1.24625 281.73875 1.6175 282.8525 2 284 C-3.52981885 286.56607605 -9.02158774 288.18707384 -14.9375 289.625 C-15.79279297 289.8415625 -16.64808594 290.058125 -17.52929688 290.28125 C-27.82182454 292.82494105 -37.7531866 293.24102526 -48.3125 293.25 C-49.38155075 293.25101212 -49.38155075 293.25101212 -50.47219849 293.25204468 C-61.86993104 293.23492928 -72.88179862 292.67013974 -84 290 C-84.71607422 289.82839355 -85.43214844 289.65678711 -86.16992188 289.47998047 C-110.62461853 283.37721384 -132.29349275 271.1842174 -150.74609375 254.04296875 C-152.99236731 251.95367733 -152.99236731 251.95367733 -155.51953125 250.05078125 C-160.02996046 246.32168624 -163.40030988 241.58622835 -167 237 C-167.75925781 236.04480469 -168.51851562 235.08960938 -169.30078125 234.10546875 C-184.99886417 213.85250166 -199.41759071 185.90171276 -199.0625 159.625 C-199.05347656 158.75101563 -199.04445312 157.87703125 -199.03515625 156.9765625 C-199.02355469 156.32429687 -199.01195312 155.67203125 -199 155 C-195.17937987 155 -194.64554836 155.97240656 -191.9375 158.5625 C-182.76394201 166.95438826 -172.1029588 173.4485206 -161 179 C-160.47166454 180.73015349 -160.02591799 182.48596083 -159.625 184.25 C-158.10885728 190.07319491 -156.41870537 193.2892084 -151.4375 196.8125 C-145.87049267 198.73564799 -140.1877573 199.26987709 -134.6171875 197.05078125 C-129.97330969 194.33471249 -126.99238582 191.40955413 -125.453125 186.12109375 C-124.34025822 180.911726 -124.24736124 176.47740201 -126.6875 171.6875 C-130.11811371 167.70057055 -133.43097149 164.2164513 -138.828125 163.76171875 C-145.80623989 163.61036694 -149.51623064 163.75007875 -155 168 C-167.92591417 166.75049496 -180.98114921 154.09834743 -190.0234375 145.5703125 C-191 144 -191 144 -190.8984375 142.16796875 C-182.41347804 121.69339265 -158.88203188 99.33243578 -141 87 C-140.34 87 -139.68 87 -139 87 C-139.00600397 89.60872469 -139.05326709 92.20545701 -139.125 94.8125 C-139.12113281 95.91948242 -139.12113281 95.91948242 -139.1171875 97.04882812 C-139.1953125 99.20703125 -139.1953125 99.20703125 -140 103 C-142.87890625 104.828125 -142.87890625 104.828125 -146 106 C-149.04862057 108.71551714 -151.62124472 111.83369189 -152 116 C-152.185625 117.546875 -152.185625 117.546875 -152.375 119.125 C-151.80786518 124.98539309 -149.68511174 130.27304236 -145.49609375 134.52734375 C-140.56003645 137.86958977 -134.729682 137.9384824 -129 137 C-123.9531549 135.09902168 -120.0181762 131.97235056 -117.625 127.08984375 C-115.91310675 121.3657007 -116.06315828 115.90838129 -118.6875 110.5625 C-121.48347883 107.46425319 -124.24961469 104.87519266 -128 103 C-128.10424484 98.33214752 -128.13246397 93.67704563 -128.03759766 89.00878906 C-128.00630485 87.33685911 -128.00520365 85.66439758 -128.01171875 83.9921875 C-127.66938385 79.70964498 -126.84818599 77.72317601 -123.53515625 74.8984375 C-120.10975016 72.70516141 -116.62519045 70.83340839 -113 69 C-111.76072579 68.33779241 -110.52244598 67.6737206 -109.28515625 67.0078125 C-94.38533814 59.13364458 -78.98275289 53.27540568 -62.6875 49 C-61.53660889 48.69698975 -60.38571777 48.39397949 -59.19995117 48.08178711 C-48.55813023 45.41015761 -48.55813023 45.41015761 -43 46 C-40.375 47.875 -40.375 47.875 -38 50 C-33.82706309 52.25564158 -29.6586051 52.68635066 -25 52 C-19.16408737 50.13589724 -15.92300672 47.49525263 -13 42 C-11.56065579 37.68196736 -11.55773776 33.51687502 -12 29 C-13.47987963 26.25427272 -13.47987963 26.25427272 -15 24 C-14.136067 14.7323551 -6.1279451 6.50046456 0 0 Z " fill="#FDFDFD" transform="translate(256,108)"/>
<path d="M0 0 C6.87904004 5.59626823 11.8658283 13.9420083 13.00390625 22.765625 C13.40414499 31.59669918 11.22186874 40.75513183 6.92578125 48.48046875 C5.39859596 51.16108826 5.39859596 51.16108826 6.29296875 53.48828125 C7.74147167 55.3831016 9.22822674 56.90274831 11 58.5 C32.54363655 79.65335328 46.21779269 108.12465414 52.6875 137.3125 C52.94716553 138.39523193 53.20683105 139.47796387 53.47436523 140.59350586 C55.72130066 150.61434434 56.20678606 160.14214345 56.125 170.375 C56.12043793 171.58964432 56.12043793 171.58964432 56.11578369 172.8288269 C56.04284056 185.99895295 55.08138998 198.53445326 51.6875 211.3125 C51.46255859 212.17601074 51.23761719 213.03952148 51.00585938 213.92919922 C43.78836701 241.0146785 27.87871811 277.83996645 3.44140625 293.77734375 C1.45090209 295.15973536 1.45090209 295.15973536 1.515625 297.44140625 C1.65484375 298.24449219 1.7940625 299.04757812 1.9375 299.875 C2.05996094 300.76316406 2.18242187 301.65132813 2.30859375 302.56640625 C2.43363281 303.47261719 2.55867188 304.37882812 2.6875 305.3125 C3.41497097 313.56993362 2.19228358 320.56379064 -2.8203125 327.35546875 C-8.53294735 333.58622629 -14.6031879 336.37512474 -23.04663086 336.88354492 C-31.61601621 337.1060087 -38.07860706 335.14343888 -45.3125 330.3125 C-45.9725 329.6525 -46.6325 328.9925 -47.3125 328.3125 C-52.19256188 328.66277208 -56.37395197 329.93071722 -60.9375 331.625 C-67.23701814 333.84616584 -73.56457588 335.32506868 -80.125 336.5625 C-80.98367676 336.72532471 -81.84235352 336.88814941 -82.72705078 337.0559082 C-125.3880967 344.76963487 -168.51041872 334.24075105 -204.3125 310.3125 C-215.0045934 302.74820381 -215.0045934 302.74820381 -217.9765625 299.48583984 C-220.92290035 296.41311961 -223.04335059 294.52850571 -227.32055664 293.80053711 C-230.80006411 293.73136049 -234.2139766 293.84921348 -237.6875 294.0625 C-253.28079175 294.81979011 -264.01246366 291.75511669 -276 281.375 C-283.49359387 273.35649255 -288.66209203 261.17569689 -289.3125 250.3125 C-289.35874512 249.66007324 -289.40499023 249.00764648 -289.45263672 248.33544922 C-290.63935588 229.4535226 -285.75807264 211.55983914 -278.3125 194.3125 C-277.9825 193.9825 -277.6525 193.6525 -277.3125 193.3125 C-275.27670669 171.16463446 -275.27670669 171.16463446 -283.2109375 151.28125 C-287.03446644 145.87998235 -288.55201269 139.62758136 -290.3125 133.3125 C-290.79203125 131.65154297 -290.79203125 131.65154297 -291.28125 129.95703125 C-295.679081 112.58967086 -294.72684934 93.57349521 -286.625 77.4375 C-277.65378782 62.47800368 -263.68536267 52.48436072 -247.0625 47.625 C-243.00029414 46.63460561 -239.1273179 46.22094253 -234.96484375 46.07421875 C-221.56276341 45.5429912 -214.24991092 43.55113404 -204.14892578 34.80273438 C-188.91832083 22.44330701 -168.95228476 15.4805282 -150.3125 10.3125 C-149.57708984 10.09932129 -148.84167969 9.88614258 -148.08398438 9.66650391 C-123.12315479 2.65946782 -91.01133038 3.71093929 -66.40625 11.859375 C-63.85044268 12.41249748 -62.72886898 12.33233634 -60.3125 11.3125 C-58.47404628 9.82693833 -56.68840597 8.27530788 -54.9375 6.6875 C-39.22487627 -7.04622253 -18.30023998 -12.39582293 0 0 Z M-62.85546875 31.640625 C-72.05711842 41.27731897 -72.05711842 41.27731897 -76.15625 52.92578125 C-75.3813037 55.29361742 -75.3813037 55.29361742 -74.26953125 57.3203125 C-72.4551535 61.09718046 -72.89778454 65.22366478 -73.3125 69.3125 C-75.27033865 74.7738394 -78.55081834 78.74505906 -83.625 81.625 C-90.27890633 83.32716208 -94.73267563 82.56459677 -100.6484375 79.3828125 C-102.3125 78.3125 -102.3125 78.3125 -104.3125 76.3125 C-111.09776287 75.56378134 -117.47961021 77.59579114 -124 79.3125 C-125.19665283 79.62646729 -126.39330566 79.94043457 -127.6262207 80.26391602 C-143.31067526 84.51216017 -158.15426621 90.6232924 -172.45751953 98.32128906 C-173.70619962 98.9885227 -174.96268634 99.64132606 -176.22607422 100.28027344 C-183.37117162 103.73469047 -183.37117162 103.73469047 -188.55859375 109.4765625 C-189.21114381 112.16776897 -189.30164249 114.5402165 -189.3125 117.3125 C-189.40586091 118.664366 -189.50385768 120.01591657 -189.60546875 121.3671875 C-189.68022849 122.80700465 -189.74923181 124.24713214 -189.8125 125.6875 C-189.85608643 126.37779297 -189.89967285 127.06808594 -189.94458008 127.77929688 C-190.03662106 130.04648214 -190.03662106 130.04648214 -189.3125 133.3125 C-186.50711914 135.70023757 -186.50711914 135.70023757 -183.3125 137.3125 C-178.75351511 142.48756393 -177.89231479 145.60679853 -177.97265625 152.41796875 C-178.5901631 157.67742368 -180.9673595 161.16228027 -184.81640625 164.69140625 C-189.82709391 168.1566288 -195.44212565 168.12638671 -201.3125 167.3125 C-205.34728588 166.23957941 -207.49819824 164.50390842 -209.84765625 161.06640625 C-212.55299754 156.11540562 -214.17574404 152.03149178 -213.3125 146.3125 C-211.49192998 140.44621883 -209.18364644 137.76289539 -204.3125 134.3125 C-203.3225 133.9825 -202.3325 133.6525 -201.3125 133.3125 C-200.9825 128.0325 -200.6525 122.7525 -200.3125 117.3125 C-204.03890176 119.17570088 -206.92613018 121.26956157 -210.0625 123.9375 C-210.6203418 124.411875 -211.17818359 124.88625 -211.75292969 125.375 C-222.88534322 135.00964235 -233.44810805 145.54255735 -242.3125 157.3125 C-242.75916016 157.89338379 -243.20582031 158.47426758 -243.66601562 159.07275391 C-245.10648556 160.95325914 -246.52497892 162.84843469 -247.9375 164.75 C-248.38851074 165.34184082 -248.83952148 165.93368164 -249.30419922 166.54345703 C-251.66283512 169.71140095 -251.66283512 169.71140095 -252.27734375 173.5 C-246.44207273 184.46180467 -231.02475408 192.67238595 -220.3125 198.3125 C-217.13663601 198.23688419 -215.68272615 197.56489765 -213.06640625 195.78125 C-208.11689257 193.14150937 -202.77229384 193.69363168 -197.3125 194.3125 C-192.27890367 196.6968351 -188.81253213 200.31243573 -186.3125 205.3125 C-185.65884389 211.37138933 -186.25901452 216.96890041 -189.3125 222.3125 C-193.6432389 226.53219431 -197.57604229 228.6019419 -203.625 228.6875 C-209.11275463 228.5631109 -212.00678289 227.73949933 -216.3125 224.3125 C-219.0626492 220.44742545 -220.26383465 217.95808 -220.75 213.3125 C-221.43899123 210.18507896 -222.12942031 209.43682388 -224.83203125 207.6015625 C-227.07197181 206.4477358 -229.32721738 205.32332862 -231.59375 204.22265625 C-241.49292268 199.33833344 -250.34888525 191.85475947 -258.3125 184.3125 C-258.9725 184.6425 -259.6325 184.9725 -260.3125 185.3125 C-260.60852085 192.50019592 -259.85536642 198.95140133 -258.1875 205.9375 C-257.9608667 206.89825439 -257.7342334 207.85900879 -257.50073242 208.84887695 C-251.52438065 233.30685698 -239.583635 255.75079355 -222.3203125 274.12890625 C-220.3125 276.3125 -220.3125 276.3125 -218.26953125 278.890625 C-208.76891564 290.64787386 -194.51556271 299.2933357 -181.3125 306.3125 C-180.20261719 306.91964844 -179.09273438 307.52679688 -177.94921875 308.15234375 C-156.83807207 319.28013387 -134.47513191 323.54236793 -110.75 323.5625 C-109.67694611 323.56351212 -109.67694611 323.56351212 -108.58221436 323.56454468 C-98.17003922 323.54893706 -88.42973865 323.0786772 -78.3125 320.3125 C-76.6760451 319.89739595 -75.03930769 319.48340461 -73.40234375 319.0703125 C-68.99504287 317.92325915 -64.62472873 316.78224725 -60.3125 315.3125 C-59.9825 314.6525 -59.6525 313.9925 -59.3125 313.3125 C-61.2401326 308.33060709 -61.2401326 308.33060709 -65.41015625 305.36328125 C-66.97747066 304.91061782 -68.54927077 304.47322182 -70.125 304.05078125 C-74.04150837 302.72895967 -76.30378365 299.95210961 -78.41796875 296.515625 C-80.43971404 291.53630473 -80.17548552 285.22184641 -78.66015625 280.11328125 C-76.81356941 276.45973391 -74.16891011 273.80120029 -70.50390625 271.97265625 C-64.51451244 270.16836471 -58.42797025 270.29254113 -52.8125 273 C-45.57755969 279.69231979 -45.57755969 279.69231979 -45.07421875 284.66796875 C-44.90285676 291.20678139 -45.45889831 294.98546237 -49.3125 300.3125 C-49.9725 300.9725 -50.6325 301.6325 -51.3125 302.3125 C-50.92371812 305.32555957 -50.04793126 306.70935311 -48.3125 309.3125 C-31.50828176 307.02812769 -13.90162464 289.80473806 -2.3125 278.3125 C-0.90871094 276.92804688 -0.90871094 276.92804688 0.5234375 275.515625 C19.16037382 256.18447615 31.22553036 231.35777162 37.5 205.4375 C37.70713623 204.58196533 37.91427246 203.72643066 38.12768555 202.8449707 C45.0527165 172.66724414 41.054812 138.18727708 27.6875 110.3125 C27.18734375 109.22324219 26.6871875 108.13398438 26.171875 107.01171875 C9.44348515 71.87428306 -21.53080648 43.43044664 -58.3125 30.3125 C-61.27285737 29.98631495 -61.27285737 29.98631495 -62.85546875 31.640625 Z " fill="#2A2A2A" transform="translate(317.3125,77.6875)"/>
<path d="M0 0 C75.87885463 0 75.87885463 0 88.79296875 12.7734375 C95.01880227 20.30592744 97.7683991 29.31599672 97.37890625 39.015625 C96.23811981 48.00078826 92.67229954 54.89619235 86 61 C81.78125 64 81.78125 64 79 64 C79 64.66 79 65.32 79 66 C79.99 66.185625 80.98 66.37125 82 66.5625 C88.7681369 68.53539821 93.45261062 73.61709795 96.9375 79.5625 C101.1022573 87.25671263 101.24513421 97.58544497 99.31640625 105.97265625 C95.35584599 117.65713071 89.92801077 124.20146367 79 130 C63 135 63 135 0 135 C0 90.45 0 45.9 0 0 Z " fill="#030303" transform="translate(1450,179)"/>
<path d="M0 0 C9.24 0 18.48 0 28 0 C32.5914815 7.21518522 37.1320976 14.43809787 41.5625 21.75 C42.78513578 23.76303327 44.00779266 25.77605372 45.23046875 27.7890625 C45.85099121 28.81161133 46.47151367 29.83416016 47.11083984 30.88769531 C50.1952031 35.96904228 53.28481503 41.04719199 56.375 46.125 C56.9637793 47.09276367 57.55255859 48.06052734 58.15917969 49.05761719 C61.19635595 54.04714071 64.24402065 59.02967108 67.3125 64 C68.54297817 65.99919338 69.77208298 67.99923252 71 70 C71.39622559 70.64501465 71.79245117 71.2900293 72.20068359 71.95458984 C73.47206546 74.0292561 74.73676503 76.10786518 76 78.1875 C76.39872314 78.83654297 76.79744629 79.48558594 77.20825195 80.15429688 C80 84.77120499 80 84.77120499 80 87 C80.66 87 81.32 87 82 87 C82 58.29 82 29.58 82 0 C91.24 0 100.48 0 110 0 C110 44.55 110 89.1 110 135 C100.76 135 91.52 135 82 135 C74.17615858 125.77904404 74.17615858 125.77904404 72.4296875 121.46875 C70.0925037 116.08082587 67.22399936 111.22840866 64.125 106.25 C63.12027456 104.57496533 62.11902346 102.89784221 61.12109375 101.21875 C50.64199761 83.67050147 39.83305695 66.33289112 29 49 C28.67 77.38 28.34 105.76 28 135 C18.76 135 9.52 135 0 135 C0 90.45 0 45.9 0 0 Z " fill="#090C60" transform="translate(549,179)"/>
<path d="M0 0 C8.58 0 17.16 0 26 0 C35.7343654 25.31622944 45.28702747 50.69874204 54.79223633 76.10180664 C57.1388125 82.37224156 59.48894045 88.64134255 61.83984375 94.91015625 C62.20752869 95.89065948 62.57521362 96.87116272 62.95404053 97.88137817 C64.83304904 102.89129313 66.7136261 107.90061251 68.59719849 112.90881348 C69.73531589 115.93777221 70.86801092 118.96874656 72 122 C72.41378906 123.10472656 72.82757812 124.20945312 73.25390625 125.34765625 C73.80884766 126.84619141 73.80884766 126.84619141 74.375 128.375 C74.69210937 129.22835937 75.00921875 130.08171875 75.3359375 130.9609375 C76 133 76 133 76 135 C66.43 135 56.86 135 47 135 C44.60089984 129.0022496 42.28996374 123.16350268 40.25 117.0625 C40.02957031 116.41732422 39.80914063 115.77214844 39.58203125 115.10742188 C38.63574851 112.27151242 38 110.01221832 38 107 C21.5 107 5 107 -12 107 C-12.33 109.31 -12.66 111.62 -13 114 C-13.47852439 115.69030218 -14.00700289 117.36758881 -14.59375 119.0234375 C-14.90183594 119.89871094 -15.20992187 120.77398437 -15.52734375 121.67578125 C-15.84832031 122.56652344 -16.16929688 123.45726562 -16.5 124.375 C-16.82097656 125.28894531 -17.14195313 126.20289063 -17.47265625 127.14453125 C-19.85611679 133.85611679 -19.85611679 133.85611679 -21 135 C-23.14558827 135.08775605 -25.29404421 135.10695219 -27.44140625 135.09765625 C-28.74658203 135.09443359 -30.05175781 135.09121094 -31.39648438 135.08789062 C-32.7851569 135.07953401 -34.17382877 135.07106905 -35.5625 135.0625 C-36.95507656 135.05748666 -38.34765481 135.05292347 -39.74023438 135.04882812 C-43.1601987 135.03699434 -46.58007844 135.0205088 -50 135 C-49.23189951 130.93239197 -48.09725679 127.2100629 -46.6875 123.3125 C-46.46384766 122.69310547 -46.24019531 122.07371094 -46.00976562 121.43554688 C-44.44311958 117.12838609 -42.76476281 112.87630066 -41.03515625 108.6328125 C-39.3285862 104.29232868 -37.79526828 99.89082732 -36.24609375 95.4921875 C-35.14151974 92.39661019 -33.99722763 89.31862617 -32.84104919 86.24206543 C-31.38050425 82.34855081 -29.93557734 78.44923563 -28.48828125 74.55078125 C-27.80538418 72.71287367 -27.12243985 70.87498364 -26.43945312 69.03710938 C-25.38409087 66.19701822 -24.32895872 63.3568429 -23.2746582 60.51635742 C-19.12379286 49.33429397 -14.94351274 38.16494619 -10.66889954 27.02949524 C-8.36943083 21.02587856 -6.19276777 14.99120429 -4.10546875 8.91015625 C-2.94420696 5.85312433 -1.46246184 2.92492367 0 0 Z " fill="#040404" transform="translate(1361,179)"/>
<path d="M0 0 C9.24 0 18.48 0 28 0 C28 18.15 28 36.3 28 55 C45.82 55 63.64 55 82 55 C82 36.85 82 18.7 82 0 C90.91 0 99.82 0 109 0 C109 44.55 109 89.1 109 135 C100.09 135 91.18 135 82 135 C81.67 116.19 81.34 97.38 81 78 C63.51 77.67 46.02 77.34 28 77 C28.01160156 81.10308594 28.02320313 85.20617187 28.03515625 89.43359375 C28.04158324 92.69687621 28.04700745 95.9601569 28.05175018 99.22344208 C28.05703976 102.67281862 28.06411301 106.12217075 28.07543945 109.5715332 C28.08834235 113.52555043 28.09322918 117.47955756 28.09765625 121.43359375 C28.10281754 122.67523788 28.10797882 123.91688202 28.11329651 125.19615173 C28.11340981 126.90781273 28.11340981 126.90781273 28.11352539 128.65405273 C28.115746 129.664431 28.11796661 130.67480927 28.12025452 131.71580505 C28 134 28 134 27 135 C18.09 135 9.18 135 0 135 C0 90.45 0 45.9 0 0 Z " fill="#090C60" transform="translate(1086,179)"/>
<path d="M0 0 C9.24 0 18.48 0 28 0 C28.00410889 2.91634277 28.00821777 5.83268555 28.01245117 8.83740234 C28.02968491 18.49664947 28.0742473 28.15563325 28.13209057 37.81471825 C28.16631223 43.6683599 28.19146311 49.52174188 28.19555664 55.37548828 C28.19984983 61.02971188 28.22839795 66.68335019 28.27343178 72.3373909 C28.28637405 74.48939219 28.29072612 76.64146364 28.28615379 78.79349899 C28.28122465 81.81918496 28.30744354 84.84317541 28.34057617 87.86865234 C28.32763771 89.18928177 28.32763771 89.18928177 28.31443787 90.53659058 C28.43501719 97.14891306 30.21741989 102.53075656 34 108 C40.39717435 113.30628585 46.36775345 114.41167771 54.5625 114.34765625 C60.93518646 113.70314591 65.77549257 111.05339147 70.4375 106.75 C74.36847842 99.83147798 75.44555534 93.12018058 75.43237305 85.25756836 C75.4425647 84.32966492 75.45275635 83.40176147 75.46325684 82.44573975 C75.49320078 79.41037818 75.50262423 76.37533314 75.51171875 73.33984375 C75.52857923 71.22277289 75.5467313 69.10571196 75.56611633 66.98866272 C75.61347366 61.44034935 75.64337525 55.89207625 75.66955566 50.34362793 C75.69943331 44.6723638 75.74593883 39.00123821 75.79101562 33.33007812 C75.8768865 22.22010889 75.9427654 11.1101537 76 0 C84.91 0 93.82 0 103 0 C103.11329816 12.94422808 103.20488748 25.88812279 103.25906086 38.83273602 C103.28507117 44.84448976 103.32031244 50.85588447 103.37719727 56.86743164 C103.43182271 62.677061 103.46148485 68.48634664 103.47438622 74.29621315 C103.48357146 76.50443743 103.50150721 78.71264449 103.52865028 80.92072105 C103.72226579 97.33522633 102.82202184 110.44069077 91 123 C81.22092491 132.88994896 68.27883332 137.04109285 54.61474609 137.24169922 C38.80817129 137.28958939 24.75034185 134.92939962 12.625 123.82421875 C2.46194273 112.41520974 -0.17543005 100.17124904 -0.11352539 85.37109375 C-0.11367142 84.44333633 -0.11381744 83.51557892 -0.1139679 82.55970764 C-0.11327593 79.51894727 -0.1055173 76.47824956 -0.09765625 73.4375 C-0.09578952 71.31901076 -0.09436682 69.20052108 -0.09336853 67.08203125 C-0.08956341 61.52543939 -0.07975035 55.96887395 -0.06866455 50.41229248 C-0.05840721 44.73450071 -0.05386167 39.05670463 -0.04882812 33.37890625 C-0.03812618 22.25259073 -0.02054573 11.1263017 0 0 Z " fill="#090C60" transform="translate(423,179)"/>
<path d="M0 0 C6.55398539 7.00169597 11.57694915 15.82605155 11.43359375 25.57421875 C11.42457031 26.3734375 11.41554688 27.17265625 11.40625 27.99609375 C11.39464844 28.599375 11.38304687 29.20265625 11.37109375 29.82421875 C6.89194047 29.85308213 2.41281084 29.87097062 -2.06640625 29.88671875 C-3.34580078 29.89509766 -4.62519531 29.90347656 -5.94335938 29.91210938 C-7.15830078 29.91533203 -8.37324219 29.91855469 -9.625 29.921875 C-10.75091553 29.92711182 -11.87683105 29.93234863 -13.03686523 29.93774414 C-15.62890625 29.82421875 -15.62890625 29.82421875 -16.62890625 28.82421875 C-16.89854806 27.43204635 -17.14464155 26.03527899 -17.37890625 24.63671875 C-18.45654404 19.68902406 -19.91718742 17.28848966 -23.62890625 13.82421875 C-28.66460166 11.23213475 -32.87114064 10.30075763 -38.56640625 10.38671875 C-39.26862305 10.39429199 -39.97083984 10.40186523 -40.69433594 10.40966797 C-46.13347917 10.58272013 -50.42213791 11.27060654 -54.62890625 14.82421875 C-57.70805883 18.13430778 -58.90679222 20.82469587 -59.25390625 25.26171875 C-58.99986632 29.58765583 -57.8025986 32.14105175 -54.7578125 35.20703125 C-47.70185571 40.56696907 -39.02260062 43.08720349 -30.69140625 45.76171875 C-15.17824687 50.74698227 0.53594528 57.79987816 8.62109375 72.76171875 C12.74630604 81.61096447 12.81616658 93.33680971 9.87109375 102.57421875 C5.03246234 114.05345465 -3.58324907 119.25999983 -14.62890625 123.82421875 C-15.50160156 124.18644531 -16.37429688 124.54867187 -17.2734375 124.921875 C-32.45603641 130.06243999 -52.46023766 127.71516181 -66.8125 121.296875 C-77.70101814 115.60343348 -86.20024856 106.97183176 -89.9375 95.20703125 C-90.16566406 94.42070312 -90.39382813 93.634375 -90.62890625 92.82421875 C-90.95890625 91.83421875 -91.28890625 90.84421875 -91.62890625 89.82421875 C-91.62890625 87.18421875 -91.62890625 84.54421875 -91.62890625 81.82421875 C-82.71890625 81.82421875 -73.80890625 81.82421875 -64.62890625 81.82421875 C-63.34161242 85.04245333 -62.14277946 88.16937996 -61.06640625 91.44921875 C-60.81761719 92.20460938 -60.56882812 92.96 -60.3125 93.73828125 C-60.08691406 94.42664063 -59.86132812 95.115 -59.62890625 95.82421875 C-59.29890625 96.81421875 -58.96890625 97.80421875 -58.62890625 98.82421875 C-56.41456684 99.91164569 -56.41456684 99.91164569 -53.62890625 100.82421875 C-52.58863281 101.33082031 -51.54835938 101.83742188 -50.4765625 102.359375 C-46.36566358 104.12719081 -42.62421081 104.32123946 -38.19140625 104.26171875 C-37.44366943 104.25849609 -36.69593262 104.25527344 -35.92553711 104.25195312 C-30.22512437 104.10743386 -26.45364641 102.97506947 -21.62890625 99.82421875 C-20.96890625 99.82421875 -20.30890625 99.82421875 -19.62890625 99.82421875 C-17.89350724 96.0479905 -17.30683912 92.97415581 -17.25390625 88.82421875 C-17.22554687 87.81359375 -17.1971875 86.80296875 -17.16796875 85.76171875 C-17.75491186 82.02119995 -18.97176733 80.49038022 -21.62890625 77.82421875 C-28.57256476 73.25867915 -36.59306201 70.67721794 -44.40551758 68.00415039 C-50.33568678 65.96700833 -56.01113161 63.62020153 -61.62890625 60.82421875 C-62.56347656 60.37433594 -63.49804688 59.92445313 -64.4609375 59.4609375 C-75.75722312 53.72780212 -81.79708914 46.52758199 -86.62890625 34.82421875 C-89.13645806 26.90643396 -88.12729044 18.24503371 -84.62890625 10.82421875 C-78.97781726 0.10163964 -69.94314474 -6.2188891 -58.62890625 -10.17578125 C-39.03811664 -15.54925497 -15.96393854 -13.21235329 0 0 Z " fill="#030303" transform="translate(1656.62890625,189.17578125)"/>
<path d="M0 0 C29.7 0 59.4 0 90 0 C90 7.59 90 15.18 90 23 C69.54 23 49.08 23 28 23 C28 33.56 28 44.12 28 55 C45.49 55 62.98 55 81 55 C81 62.26 81 69.52 81 77 C63.51 77 46.02 77 28 77 C28 88.55 28 100.1 28 112 C32.46402344 111.98839844 36.92804687 111.97679687 41.52734375 111.96484375 C45.07736432 111.9584169 48.62738325 111.95299264 52.17740631 111.94824982 C55.93005024 111.94295992 59.68267175 111.93588609 63.43530273 111.92456055 C67.04681687 111.91372859 70.65830921 111.90772251 74.26983833 111.90512276 C75.65060329 111.90326906 77.031367 111.89964951 78.41212273 111.89426994 C80.33975952 111.88705553 82.26741807 111.88659191 84.19506836 111.88647461 C85.29427109 111.884254 86.39347382 111.88203339 87.52598572 111.87974548 C90 112 90 112 91 113 C91.09899523 114.54955559 91.13079524 116.10353673 91.1328125 117.65625 C91.13410156 118.59597656 91.13539063 119.53570312 91.13671875 120.50390625 C91.13285156 121.49261719 91.12898437 122.48132813 91.125 123.5 C91.12886719 124.48871094 91.13273438 125.47742188 91.13671875 126.49609375 C91.13542969 127.43582031 91.13414062 128.37554687 91.1328125 129.34375 C91.13112061 130.64602539 91.13112061 130.64602539 91.12939453 131.97460938 C91 134 91 134 90 135 C87.23598592 135.10050214 84.49692774 135.13616075 81.73242188 135.12939453 C80.4325106 135.13202301 80.4325106 135.13202301 79.1063385 135.13470459 C76.22712227 135.13912425 73.34796691 135.13618472 70.46875 135.1328125 C68.47717273 135.13348551 66.48559554 135.1344555 64.49401855 135.13571167 C60.31420105 135.1371888 56.13440487 135.13503361 51.95458984 135.13037109 C46.58397474 135.1246738 41.2134096 135.12795273 35.84279633 135.13394356 C31.7285728 135.13754877 27.61436121 135.13641077 23.50013733 135.13381577 C21.51929214 135.13314639 19.53844588 135.1339753 17.55760193 135.13629532 C14.79423124 135.13882119 12.03094266 135.13498218 9.26757812 135.12939453 C8.44052872 135.13141876 7.61347931 135.13344299 6.7613678 135.13552856 C1.11426244 135.11426244 1.11426244 135.11426244 0 134 C-0.09627113 132.26640402 -0.12187568 130.52885354 -0.12025452 128.79258728 C-0.12162918 127.66371597 -0.12300385 126.53484467 -0.12442017 125.37176514 C-0.12082489 124.12236145 -0.11722961 122.87295776 -0.11352539 121.58569336 C-0.11367142 120.27856888 -0.11381744 118.9714444 -0.1139679 117.62471008 C-0.11425586 114.02982901 -0.10835928 110.43498103 -0.10139394 106.84010768 C-0.09516026 103.08713748 -0.09455659 99.3341666 -0.09336853 95.58119202 C-0.09025526 88.46969174 -0.08204192 81.35820675 -0.07201904 74.24671322 C-0.0587725 64.64027711 -0.05335796 55.03383685 -0.04751682 45.42739391 C-0.03810203 30.28491781 -0.01818309 15.14247399 0 0 Z " fill="#0B0E62" transform="translate(855,179)"/>
<path d="M0 0 C4.4683482 2.31325991 7.99840706 5.67201839 9.828125 10.3515625 C10.67209309 16.28895202 10.72951885 21.44861994 8.140625 26.9140625 C1.78061119 33.61786084 1.78061119 33.61786084 -3.171875 34.3515625 C-3.11773437 35.30160156 -3.06359375 36.25164062 -3.0078125 37.23046875 C-3.01522559 42.15399568 -4.39633361 46.60301476 -5.796875 51.2890625 C-6.06975342 52.21420654 -6.34263184 53.13935059 -6.6237793 54.0925293 C-11.09493613 68.9950995 -16.23333248 84.18742418 -25.94140625 96.6171875 C-27.46118939 98.40493713 -27.46118939 98.40493713 -27.171875 101.3515625 C-25.54692211 103.15809327 -25.54692211 103.15809327 -23.421875 104.8515625 C-22.72578125 105.439375 -22.0296875 106.0271875 -21.3125 106.6328125 C-20.60609375 107.2 -19.8996875 107.7671875 -19.171875 108.3515625 C-18.52347656 108.91875 -17.87507812 109.4859375 -17.20703125 110.0703125 C-14.67725135 111.66295704 -13.31011603 111.57461064 -10.359375 111.3515625 C-4.13794243 111.17798362 0.25499091 112.97473612 5.140625 116.7890625 C8.45652329 119.95073297 9.65103974 121.77632736 10.1640625 126.33984375 C10.30062864 137.96162222 10.30062864 137.96162222 5.828125 143.3515625 C3.55138867 144.99953423 1.38479444 146.12057351 -1.171875 147.3515625 C-1.831875 147.6815625 -2.491875 148.0115625 -3.171875 148.3515625 C-10.04390045 149.11791269 -14.59600808 148.47770402 -20.171875 144.3515625 C-24.18879741 140.00894368 -26.45866684 136.38353799 -26.421875 130.4140625 C-26.42960937 129.16302734 -26.42960937 129.16302734 -26.4375 127.88671875 C-26.14369364 125.08259631 -25.32602985 122.91177108 -24.171875 120.3515625 C-25.74065174 118.8157181 -27.32743654 117.29824919 -28.921875 115.7890625 C-30.24445313 114.51869141 -30.24445313 114.51869141 -31.59375 113.22265625 C-33.91291527 111.09993845 -33.91291527 111.09993845 -36.15454102 111.56347656 C-39.64329651 112.92638383 -41.85742351 115.96888958 -44.359375 118.6640625 C-65.16447755 140.20144718 -93.86300184 153.36839838 -123.171875 158.3515625 C-124.161875 158.3515625 -125.151875 158.3515625 -126.171875 158.3515625 C-126.23375 159.0528125 -126.295625 159.7540625 -126.359375 160.4765625 C-127.85486413 165.76829325 -130.81210347 168.56707892 -135.421875 171.2265625 C-140.64572396 172.79371719 -145.15037963 173.52327345 -150.34765625 171.5078125 C-155.48876815 168.64195728 -159.11765893 164.91113809 -161.171875 159.3515625 C-162.156703 153.81392312 -161.93067316 148.94990612 -159.171875 143.9765625 C-155.78077439 139.34713863 -151.64602363 136.03788906 -145.9375 134.91015625 C-140.36799437 134.61247578 -135.6618187 136.02419351 -131.171875 139.3515625 C-130.38891979 140.45388103 -129.63753063 141.57940862 -128.921875 142.7265625 C-126.51390995 145.59947939 -126.51390995 145.59947939 -123.76171875 145.46484375 C-120.47491558 144.98266132 -117.37578331 144.23281568 -114.171875 143.3515625 C-113.54249023 143.18156738 -112.91310547 143.01157227 -112.26464844 142.83642578 C-92.42457163 137.37868839 -73.6008438 128.02723939 -58.171875 114.3515625 C-57.3984375 113.70960938 -56.625 113.06765625 -55.828125 112.40625 C-52.10361015 109.288993 -49.56308761 106.63824852 -47.171875 102.3515625 C-65.88908138 90.11213711 -92.2352548 75.3515625 -115.171875 75.3515625 C-116.52688419 76.66286172 -117.85858843 77.99847937 -119.171875 79.3515625 C-124.43082397 81.90026815 -129.43142364 82.02790434 -135.171875 81.3515625 C-140.05687023 78.99952776 -143.02691125 75.66465564 -146.171875 71.3515625 C-147.70758105 66.57921015 -148.15187646 61.1683667 -146.48828125 56.38671875 C-143.91376111 51.50474487 -140.13682846 47.83403923 -135.171875 45.3515625 C-128.10598467 44.62594077 -121.93687412 44.90689198 -116.171875 49.3515625 C-111.97014603 53.58472585 -110.53214003 57.4672337 -110.171875 63.3515625 C-109.0375 63.4134375 -107.903125 63.4753125 -106.734375 63.5390625 C-94.99680246 64.86993687 -83.6254771 69.1748641 -73.12011719 74.40039062 C-70.79049089 75.53776206 -68.43966681 76.62433513 -66.0859375 77.7109375 C-56.71884138 82.05706374 -47.62819553 86.37074564 -39.171875 92.3515625 C-35.3703424 88.98767812 -33.19145164 85.28250813 -30.859375 80.8515625 C-30.47056152 80.11397705 -30.08174805 79.3763916 -29.68115234 78.61645508 C-23.57925057 66.6511827 -14.59228743 48.02627778 -16.171875 34.3515625 C-17.5660336 32.68090372 -17.5660336 32.68090372 -19.484375 31.4140625 C-23.68721173 28.0449869 -25.82410721 25.25977063 -26.484375 19.73828125 C-26.7437674 13.74793799 -26.3401622 9.95861678 -22.171875 5.3515625 C-15.61223542 -0.78973272 -8.91633721 -2.6620719 0 0 Z " fill="#2A2A2A" transform="translate(315.171875,199.6484375)"/>
<path d="M0 0 C9.54720199 7.64142654 16.14205416 19.89595726 17.53515625 32.00390625 C17.7421875 34.5078125 17.7421875 34.5078125 17.72265625 36.44140625 C16.72265625 37.44140625 16.72265625 37.44140625 14.13061523 37.55493164 C13.00469971 37.54969482 11.87878418 37.54445801 10.71875 37.5390625 C9.50380859 37.53583984 8.28886719 37.53261719 7.03710938 37.52929688 C5.75771484 37.52091797 4.47832031 37.51253906 3.16015625 37.50390625 C1.87689453 37.49939453 0.59363281 37.49488281 -0.72851562 37.49023438 C-3.91150397 37.4784017 -7.09440137 37.46191693 -10.27734375 37.44140625 C-10.40286621 36.84682617 -10.52838867 36.25224609 -10.65771484 35.63964844 C-12.51492316 25.74413725 -12.51492316 25.74413725 -18.2109375 17.80078125 C-24.22668944 13.95953047 -29.08890825 13.23617642 -36.08984375 13.19140625 C-36.88455078 13.17078125 -37.67925781 13.15015625 -38.49804688 13.12890625 C-44.88246069 13.08666034 -48.96156996 14.45645728 -53.90234375 18.69140625 C-63.38111373 29.66682412 -63.75551965 42.8180283 -63.61352539 56.66040039 C-63.58978282 59.1352571 -63.59300561 61.60904127 -63.59960938 64.08398438 C-63.57863419 76.77548953 -62.96662375 90.61926613 -53.46875 100.28125 C-46.00718076 105.81725298 -37.11591838 104.92414866 -28.27734375 104.44140625 C-22.70797419 103.39971268 -18.69237246 100.99477787 -15.27734375 96.44140625 C-13.13051652 91.56027542 -11.56943289 86.60976281 -10.27734375 81.44140625 C-1.03734375 81.44140625 8.20265625 81.44140625 17.72265625 81.44140625 C16.57750968 91.74772536 14.21235549 101.1264791 7.72265625 109.44140625 C7.00078125 110.43140625 6.27890625 111.42140625 5.53515625 112.44140625 C2.22906121 116.31541945 -1.93734619 118.85353609 -6.27734375 121.44140625 C-6.91671875 121.82425781 -7.55609375 122.20710937 -8.21484375 122.6015625 C-21.67469876 129.97644139 -39.80191771 130.96858554 -54.46484375 126.81640625 C-67.86061537 121.84477967 -78.10520434 113.54026736 -84.65234375 100.75390625 C-85.11664795 99.85696045 -85.11664795 99.85696045 -85.59033203 98.94189453 C-91.201594 87.1487855 -92.91170879 75.37910138 -92.68896484 62.49755859 C-92.65224287 60.31039789 -92.64794912 58.12493894 -92.6484375 55.9375 C-92.55621129 37.14528748 -89.56857556 21.20037572 -77.27734375 6.44140625 C-76.73335937 5.78398437 -76.189375 5.1265625 -75.62890625 4.44921875 C-56.65929171 -16.37108989 -21.93027702 -15.00888599 0 0 Z " fill="#0A0D61" transform="translate(1050.27734375,187.55859375)"/>
<path d="M0 0 C96.69 0 193.38 0 293 0 C293 7.92 293 15.84 293 24 C196.31 24 99.62 24 0 24 C0 16.08 0 8.16 0 0 Z " fill="#000000" transform="translate(418,337)"/>
<path d="M0 0 C-2.01558485 4.13851499 -4.52934591 7.72825599 -7.22265625 11.45703125 C-8.98266117 13.88135543 -8.98266117 13.88135543 -10.18359375 16.13671875 C-11.32237229 18.12645268 -12.23835102 19.52319476 -14 21 C-16.75203314 21.72444486 -19.44650674 22.07128153 -22.26953125 22.41796875 C-26.5339319 23.32697547 -29.27149572 25.674884 -32 29 C-33.98472319 32.49589839 -34.95706764 36.12625125 -36 40 C-36.72960937 40.08636719 -37.45921875 40.17273438 -38.2109375 40.26171875 C-45.08102913 41.18621256 -51.64016365 42.57853028 -58.3125 44.4375 C-59.05226074 44.64270264 -59.79202148 44.84790527 -60.55419922 45.05932617 C-77.75182863 49.97485696 -94.1659275 57.7881224 -110 66 C-109.71640113 64.5608866 -109.42278601 63.12374482 -109.125 61.6875 C-108.96257812 60.88699219 -108.80015625 60.08648437 -108.6328125 59.26171875 C-108 57 -108 57 -106 54 C-104.046875 53.41015625 -104.046875 53.41015625 -101.75 53.0625 C-95.88663617 51.90488563 -92.33306397 49.76540904 -88.6875 44.9375 C-85.83121154 39.96544231 -85.20733607 35.63064726 -86 30 C-87.99481694 24.90114055 -91.09789141 21.04179225 -96.046875 18.62109375 C-101.18553558 16.98699969 -105.68616218 17.58395136 -110.75 19.1875 C-115.00776658 21.56202367 -117.89519249 24.05343439 -120.3125 28.3125 C-122.02879794 35.02166466 -121.29480105 39.38424682 -117.875 45.23828125 C-116.28969712 48.43011874 -117.20279619 50.99862756 -118.2421875 54.203125 C-118.50386719 55.01910156 -118.76554687 55.83507812 -119.03515625 56.67578125 C-119.31230469 57.52527344 -119.58945313 58.37476563 -119.875 59.25 C-120.4149701 60.92158209 -120.95404734 62.59345289 -121.4921875 64.265625 C-121.75805664 65.07177246 -122.02392578 65.87791992 -122.29785156 66.70849609 C-123.10861357 69.22807101 -123.10861357 69.22807101 -123.7890625 72.8046875 C-125.36498965 76.96310172 -127.87416114 78.60371801 -131.5 80.875 C-132.77677795 81.72809452 -134.05019848 82.58623406 -135.3203125 83.44921875 C-135.94711914 83.87380371 -136.57392578 84.29838867 -137.21972656 84.73583984 C-141.47932566 87.76055242 -145.18894717 91.44301736 -149 95 C-150.32903709 96.15081372 -151.66218976 97.29689684 -153 98.4375 C-164.24752673 108.28191475 -173.59875943 119.38062401 -182.17578125 131.58984375 C-183.95914633 133.94602417 -185.86174615 135.96559071 -188 138 C-186.30606864 100.09098431 -169.51880059 67.47819661 -144 40 C-143.44957031 39.39542969 -142.89914063 38.79085937 -142.33203125 38.16796875 C-128.21936091 23.28868422 -109.02369026 12.26508588 -90 5 C-89.06293213 4.64083496 -89.06293213 4.64083496 -88.10693359 4.27441406 C-59.18810355 -6.57673164 -29.94647988 -5.20266902 0 0 Z " fill="#FBFBFB" transform="translate(244,103)"/>
<path d="M0 0 C36.3 0 72.6 0 110 0 C110 7.26 110 14.52 110 22 C109.505 22.495 109.505 22.495 109 23 C95.47 23 81.94 23 68 23 C68 59.96 68 96.92 68 135 C59.09 135 50.18 135 41 135 C41 98.04 41 61.08 41 23 C27.47 23 13.94 23 0 23 C0 15.41 0 7.82 0 0 Z " fill="#0A0D61" transform="translate(730,179)"/>
<path d="M0 0 C8.91 0 17.82 0 27 0 C27 36.96 27 73.92 27 112 C46.47 112 65.94 112 86 112 C86 119.59 86 127.18 86 135 C57.62 135 29.24 135 0 135 C0 90.45 0 45.9 0 0 Z " fill="#020202" transform="translate(1220,179)"/>
<path d="M0 0 C8.91 0 17.82 0 27 0 C27 44.55 27 89.1 27 135 C18.09 135 9.18 135 0 135 C0 90.45 0 45.9 0 0 Z " fill="#070A5F" transform="translate(685,179)"/>
<path d="M0 0 C5.28 -0.103125 10.56 -0.20625 16 -0.3125 C17.65 -0.35802002 19.3 -0.40354004 21 -0.45043945 C28.63833836 -0.57282007 35.16994359 -0.6072517 41 5 C45.18379035 9.58867328 45.3525783 14.1575803 45.2734375 20.140625 C44.86525442 24.4090538 43.71050103 27.6591499 41 31 C35.65440234 35.17928544 30.55814737 36.12472713 23.92578125 36.09765625 C22.67450439 36.09515869 21.42322754 36.09266113 20.1340332 36.09008789 C17.74737427 36.07643188 17.74737427 36.07643188 15.3125 36.0625 C10.259375 36.041875 5.20625 36.02125 0 36 C0 24.12 0 12.24 0 0 Z " fill="#FAFAFA" transform="translate(1477,255)"/>
<path d="M0 0 C-1.62502676 3.89077835 -4.28987584 6.71248983 -7.0625 9.8125 C-12.55125954 16.13562315 -16.87776713 22.80837079 -20.94580078 30.11035156 C-21.97590844 31.95681596 -23.03148618 33.78681053 -24.08984375 35.6171875 C-32.32560494 50.14200413 -37.39203503 65.75295279 -41 82 C-41.66 82 -42.32 82 -43 82 C-48.73808697 65.78851156 -52.96653013 47.2560713 -46.2578125 30.6015625 C-39.75811013 17.15807872 -31.52227 8.55904346 -17.47265625 3 C-11.57575373 0.95914189 -6.27303963 -0.14588464 0 0 Z " fill="#F9F9F9" transform="translate(85,136)"/>
<path d="M0 0 C6.8990625 -0.12375 6.8990625 -0.12375 13.9375 -0.25 C16.08560181 -0.30462402 16.08560181 -0.30462402 18.27709961 -0.36035156 C25.63733219 -0.42400985 31.70507648 -0.08817438 38 4 C41.68863693 7.68863693 42.16251434 11.80706348 42.3125 16.875 C42.24857451 21.70492586 41.31567179 24.33531012 38 28 C32.3332866 32.36809158 28.51642526 33.12962011 21.484375 33.09765625 C20.35741211 33.09515869 19.23044922 33.09266113 18.06933594 33.09008789 C15.93126465 33.07643188 15.93126465 33.07643188 13.75 33.0625 C9.2125 33.041875 4.675 33.02125 0 33 C0 22.11 0 11.22 0 0 Z " fill="#FAFAFA" transform="translate(1477,202)"/>
<path d="M0 0 C2.65990434 2.65990434 3.18445581 5.60356882 4.1875 9.125 C10.03866188 28.58781214 19.47963425 46.0407717 32 62 C33.69276681 64.31621006 35.34764079 66.65471596 37 69 C25.01345284 69.62994992 16.04903737 68.72836447 6.625 60.875 C-0.48346345 54.01476861 -4.8428259 44.8989995 -5.30078125 34.94140625 C-5.3197123 33.48188838 -5.32303173 32.02210265 -5.3125 30.5625 C-5.30976074 29.78624268 -5.30702148 29.00998535 -5.30419922 28.21020508 C-5.13563746 18.66515322 -3.85342317 8.79585724 0 0 Z " fill="#F8F8F8" transform="translate(45,291)"/>
<path d="M0 0 C5.98084334 3.27630417 10.49696967 7.58993783 13.07421875 13.97265625 C14.64241043 22.1321536 12.02558095 29.42296634 9.07421875 36.97265625 C5.00958095 36.97265625 2.98977823 34.89635761 -0.11328125 32.53515625 C-11.5497588 24.1131891 -23.92801528 17.64805064 -36.92578125 11.97265625 C-33.80265915 8.68780104 -30.84175596 6.06743526 -26.92578125 3.78515625 C-26.10078125 3.29660156 -25.27578125 2.80804688 -24.42578125 2.3046875 C-16.75771262 -1.78095532 -8.37319327 -2.94011993 0 0 Z " fill="#F9F9F9" transform="translate(304.92578125,84.02734375)"/>
<path d="M0 0 C3.91604981 2.61069988 4.48627599 5.5709147 5.84765625 9.859375 C6.1050206 10.64137268 6.36238495 11.42337036 6.62754822 12.22906494 C7.44911044 14.73293005 8.25598 17.24125405 9.0625 19.75 C9.60905816 21.42479534 10.15657341 23.09927866 10.70507812 24.7734375 C11.93877934 28.54427686 13.16493717 32.31740745 14.37600708 36.09558105 C14.9448394 37.83165049 15.55511619 39.55400091 16.16967773 41.27441406 C17 44 17 44 17 48 C6.11 48 -4.78 48 -16 48 C-14.411875 42.885 -12.82375 37.77 -11.1875 32.5 C-10.6927417 30.90220703 -10.1979834 29.30441406 -9.68823242 27.65820312 C-9.28582813 26.36582824 -8.88325126 25.07350706 -8.48046875 23.78125 C-8.27989868 23.13124023 -8.07932861 22.48123047 -7.87268066 21.81152344 C-6.41273709 17.1383111 -4.74899155 12.57316289 -3 8 C-2.68675781 7.1646875 -2.37351562 6.329375 -2.05078125 5.46875 C-1.3671875 3.64583333 -0.68359375 1.82291667 0 0 Z " fill="#F8F8F8" transform="translate(1373,215)"/>
<path d="M0 0 C15 0 15 0 21 3 C23.1333035 5.90905023 23.51976576 8.4482673 23 12 C21 14.8125 21 14.8125 19 17 C19.6496875 17.39316406 20.299375 17.78632813 20.96875 18.19140625 C23 20 23 20 23.53125 22.33984375 C23.44669515 29.36846547 23.44669515 29.36846547 21.1875 32.5625 C14.31859937 37.07634899 9.65613336 35 0 35 C0 23.45 0 11.9 0 0 Z " fill="#0D0D0D" transform="translate(739,332)"/>
<path d="M0 0 C0.33 0.33 0.66 0.66 1 1 C1.33 0.34 1.66 -0.32 2 -1 C3.32 -1 4.64 -1 6 -1 C6.0744389 3.0384057 6.12873729 7.07654293 6.16479492 11.11547852 C6.17983432 12.48794517 6.20027133 13.86036414 6.22631836 15.23266602 C6.26291221 17.21088656 6.27816698 19.18946514 6.29296875 21.16796875 C6.3086792 22.35672607 6.32438965 23.5454834 6.34057617 24.77026367 C5.96685865 28.31428451 5.09632529 30.15362816 3 33 C-0.03204102 35.35825413 -3.25452521 35.34710322 -7.02734375 35.26953125 C-9.83522128 34.88588066 -11.75947787 33.6803916 -14 32 C-13.67 30.68 -13.34 29.36 -13 28 C-12.505 28.33 -12.01 28.66 -11.5 29 C-7.79357588 30.48256965 -4.98894311 30.32168896 -1 30 C1.36980013 27.04622502 1.36980013 27.04622502 1 23 C0.34 23.66 -0.32 24.32 -1 25 C-7.97696585 25.80063542 -7.97696585 25.80063542 -11.875 22.75 C-15.65529913 17.85784819 -16.78656611 14.28042788 -16 8 C-14.8064211 4.83701592 -13.53571538 2.63873756 -11.375 0.0625 C-7.62512846 -1.61507411 -3.94385082 -0.86396732 0 0 Z " fill="#0C0C0C" transform="translate(834,342)"/>
<path d="M0 0 C1.65 0 3.3 0 5 0 C5 12.21 5 24.42 5 37 C3.35 37 1.7 37 0 37 C0 36.34 0 35.68 0 35 C-0.804375 35.495 -0.804375 35.495 -1.625 36 C-4.79420385 37.33440162 -6.57574231 37.53713846 -10 37 C-13.16077769 35.556345 -15.154205 33.95963681 -17 31 C-17.96069768 25.52402324 -18.11271175 20.28652616 -15.6484375 15.22265625 C-14 13 -14 13 -11 11 C-6.33888024 10.66100947 -4.25786569 10.87106715 0 13 C0 8.71 0 4.42 0 0 Z " fill="#141414" transform="translate(985,330)"/>
<path d="M0 0 C1.65 0 3.3 0 5 0 C5 0.66 5 1.32 5 2 C5.53625 1.67 6.0725 1.34 6.625 1 C10.26116015 -0.5310148 13.43563446 -0.49165774 17.1875 0.6875 C19.84552001 2.61227311 20.7402794 3.91368454 22 7 C22.54889246 11.93261463 22.67467242 16.3807862 20.75 21 C17.93575578 24.21627911 16.3688931 25.85740697 12 26.3125 C9 26 9 26 5 24 C5 27.96 5 31.92 5 36 C3.35 36 1.7 36 0 36 C0 24.12 0 12.24 0 0 Z " fill="#121212" transform="translate(1532,341)"/>
<path d="M0 0 C3.18459646 1.51992104 5.73579966 3.28295959 8 6 C9.66036758 10.98110273 9.79858847 15.95916279 7.875 20.875 C4.56215197 24.6295611 1.37084018 25.85570103 -3.5625 26.375 C-8.30900807 25.85719912 -10.68283297 24.49884524 -13.8125 20.9375 C-15.92684978 15.70726634 -15.92684978 10.29273366 -13.8125 5.0625 C-9.71546129 0.4003525 -6.16108321 -0.66011606 0 0 Z " fill="#131313" transform="translate(1318,341)"/>
<path d="M0 0 C3.18459646 1.51992104 5.73579966 3.28295959 8 6 C9.66036758 10.98110273 9.79858847 15.95916279 7.875 20.875 C4.58952288 24.59854074 1.36101848 25.80556879 -3.5 26.5 C-8.20439202 25.827944 -9.66341441 24.33658559 -13 21 C-15.83880927 16.74178609 -15.51165313 12.99661255 -15 8 C-12.20815047 1.0938459 -7.15273965 -0.76636496 0 0 Z " fill="#121212" transform="translate(1109,341)"/>
<path d="M0 0 C4.05549932 2.1028515 6.32004909 3.76957815 8 8 C8.7121481 13.01815989 8.52912753 16.94174495 6.25 21.5 C2.98323482 25.12973909 1.42853084 25.87013356 -3.4375 26.3125 C-8.25972129 25.88949813 -10.59279327 24.55277984 -13.8125 21 C-15.65252576 16.35151386 -15.7929324 11.92338935 -15 7 C-11.65903109 0.62741116 -6.89771771 -0.93593567 0 0 Z " fill="#0E0E0E" transform="translate(893,341)"/>
<path d="M0 0 C2.87305972 1.40460697 4.74510999 2.74510999 7 5 C7.31884766 7.15478516 7.31884766 7.15478516 7.4140625 9.7890625 C7.45273438 10.73007812 7.49140625 11.67109375 7.53125 12.640625 C7.5621875 13.62546875 7.593125 14.6103125 7.625 15.625 C7.66367188 16.61757813 7.70234375 17.61015625 7.7421875 18.6328125 C7.8366314 21.08835385 7.92219875 23.5438841 8 26 C6.02 26 4.04 26 2 26 C2 25.34 2 24.68 2 24 C1.484375 24.33 0.96875 24.66 0.4375 25 C-2.96121795 26.39434583 -5.35594448 26.44751559 -9 26 C-12.37564269 23.55804571 -13.75320045 22.0769435 -14.6875 18 C-13.91825452 14.64329245 -12.76142457 12.98005022 -10 10.90234375 C-6.16590651 9.1725086 -2.10715009 9.63473962 2 10 C1.34 8.35 0.68 6.7 0 5 C-3.41656024 4.83322718 -3.41656024 4.83322718 -7 5 C-7.66 5.66 -8.32 6.32 -9 7 C-10.32 7 -11.64 7 -13 7 C-12.69611836 4.06247746 -12.19330344 3.15919107 -9.875 1.25 C-6.2901772 -0.30861861 -3.87882048 -0.41558791 0 0 Z " fill="#161616" transform="translate(1033,341)"/>
<path d="M0 0 C3.62342508 1.6470114 6.16816086 3.4327343 8 7 C8 9.64 8 12.28 8 15 C0.08 15.495 0.08 15.495 -8 16 C-7.42874646 19.74275212 -7.42874646 19.74275212 -6 21 C0.08468557 21.23376923 0.08468557 21.23376923 6 20 C6 20.99 6 21.98 6 23 C2.61452715 25.85649271 -0.57979576 26.58037628 -5 26.4296875 C-8.61068185 25.65395507 -10.45265225 23.60947818 -13 21 C-15.09948946 16.80102108 -14.54696419 11.56001667 -14 7 C-10.85328937 0.71832019 -6.67667691 -0.45265606 0 0 Z " fill="#161616" transform="translate(1572,341)"/>
<path d="M0 0 C3.5386994 1.65139305 4.81070153 2.71605229 7 6 C7.2610788 9.02329256 7.08815181 11.95876242 7 15 C1.72 15 -3.56 15 -9 15 C-8.34 16.98 -7.68 18.96 -7 21 C-2.48382401 21.07654536 1.59085217 21.10228696 6 20 C6 20.99 6 21.98 6 23 C1.78292508 26.55815697 -1.738743 26.41756008 -7 26 C-10.49926018 25.12518495 -11.11034342 23.84368015 -13.25 20.8125 C-15.64844816 16.27055683 -15.55547398 12.33299071 -14.375 7.375 C-10.91586093 1.40012342 -6.82848674 -0.99323444 0 0 Z " fill="#131313" transform="translate(1498,341)"/>
<path d="M0 0 C4.14613048 1.79037453 6.20962547 3.85386952 8 8 C8 10.31 8 12.62 8 15 C2.06 15 -3.88 15 -10 15 C-9.34 16.98 -8.68 18.96 -8 21 C-6.41676312 21.027193 -4.83338938 21.04648306 -3.25 21.0625 C-2.36828125 21.07410156 -1.4865625 21.08570313 -0.578125 21.09765625 C1.7818838 21.00826198 3.74498524 20.66912821 6 20 C6 20.99 6 21.98 6 23 C2.61452715 25.85649271 -0.57979576 26.58037628 -5 26.4296875 C-8.61068185 25.65395507 -10.45265225 23.60947818 -13 21 C-15.09948946 16.80102108 -14.54696419 11.56001667 -14 7 C-10.85328937 0.71832019 -6.67667691 -0.45265606 0 0 Z " fill="#141414" transform="translate(1662,341)"/>
<path d="M0 0 C4.14613048 1.79037453 6.20962547 3.85386952 8 8 C8 10.31 8 12.62 8 15 C2.06 15 -3.88 15 -10 15 C-9.34 16.98 -8.68 18.96 -8 21 C-6.41676312 21.027193 -4.83338938 21.04648306 -3.25 21.0625 C-2.36828125 21.07410156 -1.4865625 21.08570313 -0.578125 21.09765625 C1.7818838 21.00826198 3.74498524 20.66912821 6 20 C6 20.99 6 21.98 6 23 C2.61452715 25.85649271 -0.57979576 26.58037628 -5 26.4296875 C-8.61068185 25.65395507 -10.45265225 23.60947818 -13 21 C-15.09948946 16.80102108 -14.54696419 11.56001667 -14 7 C-10.85328937 0.71832019 -6.67667691 -0.45265606 0 0 Z " fill="#141414" transform="translate(1184,341)"/>
<path d="M0 0 C3.47241719 2.02751876 5.70279738 4.10839215 7 8 C7 10.31 7 12.62 7 15 C1.39 15 -4.22 15 -10 15 C-8.54711014 19.5841963 -8.54711014 19.5841963 -7 21 C-2.47357775 21.15088074 1.58300512 21.10424872 6 20 C6 20.99 6 21.98 6 23 C3.15738008 25.32577993 1.22586194 25.97536052 -2.4375 26.375 C-6.41345159 25.95647878 -8.69723365 25.25188615 -12 23 C-15.13754653 18.50284998 -15.77564145 14.32323791 -15 9 C-13.72368724 5.43975913 -12.65123318 3.54269432 -9.75 1.125 C-6.15927487 -0.34393301 -3.85228124 -0.54067105 0 0 Z " fill="#111111" transform="translate(1009,341)"/>
<path d="M0 0 C3.5386994 1.65139305 4.81070153 2.71605229 7 6 C7 8.64 7 11.28 7 14 C1.39 14 -4.22 14 -10 14 C-8.67082039 19.47825081 -8.67082039 19.47825081 -7 21 C-2.47357775 21.15088074 1.58300512 21.10424872 6 20 C6 20.99 6 21.98 6 23 C1.78292508 26.55815697 -1.738743 26.41756008 -7 26 C-10.43359061 25.14160235 -11.101504 23.86184177 -13.25 20.9375 C-15.45561524 16.69389628 -16.12101769 12.68189743 -15 8 C-11.06225012 1.56514044 -7.58839502 -0.51446746 0 0 Z " fill="#0D0D0D" transform="translate(1412,341)"/>
<path d="M0 0 C1.65 0 3.3 0 5 0 C5.27714844 1.07121094 5.55429688 2.14242188 5.83984375 3.24609375 C6.20554924 4.64327627 6.57144446 6.04040915 6.9375 7.4375 C7.11990234 8.14455078 7.30230469 8.85160156 7.49023438 9.58007812 C8.18149374 13.07574861 8.18149374 13.07574861 10 16 C11.65 10.72 13.3 5.44 15 0 C17.475 0.495 17.475 0.495 20 1 C21.65 6.28 23.3 11.56 25 17 C26.65 11.39 28.3 5.78 30 0 C31.32 0 32.64 0 34 0 C30.76595745 18.46808511 30.76595745 18.46808511 27 26 C25.68 26 24.36 26 23 26 C22.65066406 24.78441406 22.30132813 23.56882812 21.94140625 22.31640625 C21.4819414 20.73172137 21.0222967 19.14708863 20.5625 17.5625 C20.33240234 16.76005859 20.10230469 15.95761719 19.86523438 15.13085938 C19.01294138 11.25946753 19.01294138 11.25946753 17 8 C16.65066406 9.13179688 16.30132813 10.26359375 15.94140625 11.4296875 C15.48186105 12.91148631 15.02222069 14.39325562 14.5625 15.875 C14.33240234 16.62136719 14.10230469 17.36773437 13.86523438 18.13671875 C12.11328125 23.7734375 12.11328125 23.7734375 11 26 C9.68 26 8.36 26 7 26 C6.61908203 24.53240234 6.61908203 24.53240234 6.23046875 23.03515625 C3.95426061 14.29867637 3.95426061 14.29867637 1.25 5.6875 C0 2 0 2 0 0 Z " fill="#101010" transform="translate(1204,341)"/>
<path d="M0 0 C1.65 0 3.3 0 5 0 C5 1.98 5 3.96 5 6 C6.65 6 8.3 6 10 6 C10 7.32 10 8.64 10 10 C8.35 10 6.7 10 5 10 C5 15.94 5 21.88 5 28 C6.65 28 8.3 28 10 28 C10 29.32 10 30.64 10 32 C6.625 32.125 6.625 32.125 3 32 C1 30 1 30 0.77294922 27.84521484 C0.78342285 26.97590332 0.79389648 26.1065918 0.8046875 25.2109375 C0.81113281 24.26992188 0.81757812 23.32890625 0.82421875 22.359375 C0.84097656 21.37453125 0.85773438 20.3896875 0.875 19.375 C0.88402344 18.38242187 0.89304687 17.38984375 0.90234375 16.3671875 C0.92595751 13.91135612 0.9618293 11.45564826 1 9 C-2.96 9.99 -6.92 10.98 -11 12 C-11.33 18.6 -11.66 25.2 -12 32 C-13.65 32 -15.3 32 -17 32 C-17 23.42 -17 14.84 -17 6 C-11.33333333 6 -5.66666667 6 0 6 C0 4.02 0 2.04 0 0 Z " fill="#151515" transform="translate(1600,335)"/>
<path d="M0 0 C1.32 0 2.64 0 4 0 C4.33 4.29 4.66 8.58 5 13 C5.99 12.34 6.98 11.68 8 11 C11.82104324 10.57543964 14.23222836 10.62553129 17.70703125 12.3203125 C21.3300734 16.55439583 20.53414454 20.87597231 20.3125 26.25 C20.28994141 27.28125 20.26738281 28.3125 20.24414062 29.375 C20.18527163 31.91814065 20.10310065 34.45833113 20 37 C18.68 37 17.36 37 16 37 C15.97494385 36.39937744 15.9498877 35.79875488 15.92407227 35.17993164 C15.8084472 32.47388563 15.68557064 29.76821717 15.5625 27.0625 C15.52318359 26.11697266 15.48386719 25.17144531 15.44335938 24.19726562 C15.40146484 23.29814453 15.35957031 22.39902344 15.31640625 21.47265625 C15.27974854 20.64000244 15.24309082 19.80734863 15.20532227 18.94946289 C15.20632897 16.99661142 15.20632897 16.99661142 14 16 C10.54178598 15.74996036 10.54178598 15.74996036 7 16 C4.6031335 18.3968665 4.71718867 19.07028314 4.5859375 22.3515625 C4.54726562 23.20234375 4.50859375 24.053125 4.46875 24.9296875 C4.4378125 25.81914062 4.406875 26.70859375 4.375 27.625 C4.31699219 28.97078125 4.31699219 28.97078125 4.2578125 30.34375 C4.16340643 32.5622927 4.07783252 34.78082403 4 37 C2.68 37 1.36 37 0 37 C0 24.79 0 12.58 0 0 Z " fill="#030303" transform="translate(1448,330)"/>
<path d="M0 0 C1.32 0 2.64 0 4 0 C4.33 4.29 4.66 8.58 5 13 C5.99 12.34 6.98 11.68 8 11 C11.82104324 10.57543964 14.23222836 10.62553129 17.70703125 12.3203125 C21.3300734 16.55439583 20.53414454 20.87597231 20.3125 26.25 C20.28994141 27.28125 20.26738281 28.3125 20.24414062 29.375 C20.18527163 31.91814065 20.10310065 34.45833113 20 37 C18.68 37 17.36 37 16 37 C15.97494385 36.39937744 15.9498877 35.79875488 15.92407227 35.17993164 C15.8084472 32.47388563 15.68557064 29.76821717 15.5625 27.0625 C15.52318359 26.11697266 15.48386719 25.17144531 15.44335938 24.19726562 C15.40146484 23.29814453 15.35957031 22.39902344 15.31640625 21.47265625 C15.27974854 20.64000244 15.24309082 19.80734863 15.20532227 18.94946289 C15.20632897 16.99661142 15.20632897 16.99661142 14 16 C10.54178598 15.74996036 10.54178598 15.74996036 7 16 C4.6031335 18.3968665 4.71718867 19.07028314 4.5859375 22.3515625 C4.54726562 23.20234375 4.50859375 24.053125 4.46875 24.9296875 C4.4378125 25.81914062 4.406875 26.70859375 4.375 27.625 C4.31699219 28.97078125 4.31699219 28.97078125 4.2578125 30.34375 C4.16340643 32.5622927 4.07783252 34.78082403 4 37 C2.68 37 1.36 37 0 37 C0 24.79 0 12.58 0 0 Z " fill="#030303" transform="translate(1268,330)"/>
<path d="M0 0 C1.65 0 3.3 0 5 0 C5.33 6.93 5.66 13.86 6 21 C12.32917961 21.52174919 12.32917961 21.52174919 15 20 C15.33 13.4 15.66 6.8 16 0 C17.65 0 19.3 0 21 0 C21 8.58 21 17.16 21 26 C19.35 26 17.7 26 16 26 C16 25.34 16 24.68 16 24 C15.484375 24.33 14.96875 24.66 14.4375 25 C11.08597404 26.37498501 8.59034613 26.38467994 5 26 C2.63502561 24.13291495 1.33969285 22.67938569 0 20 C-0.08372659 18.47851674 -0.10730027 16.95344222 -0.09765625 15.4296875 C-0.09443359 14.53378906 -0.09121094 13.63789063 -0.08789062 12.71484375 C-0.07951172 11.77769531 -0.07113281 10.84054687 -0.0625 9.875 C-0.05798828 8.93011719 -0.05347656 7.98523438 -0.04882812 7.01171875 C-0.03702357 4.67441613 -0.02055759 2.33723939 0 0 Z " fill="#181818" transform="translate(1331,341)"/>
<path d="M0 0 C1.65 0 3.3 0 5 0 C5.02505615 0.60062256 5.0501123 1.20124512 5.07592773 1.82006836 C5.1915528 4.52611437 5.31442936 7.23178283 5.4375 9.9375 C5.47681641 10.88302734 5.51613281 11.82855469 5.55664062 12.80273438 C5.59853516 13.70185547 5.64042969 14.60097656 5.68359375 15.52734375 C5.72025146 16.35999756 5.75690918 17.19265137 5.79467773 18.05053711 C5.79367103 20.00338858 5.79367103 20.00338858 7 21 C10.5 21.16666667 10.5 21.16666667 14 21 C15.58403524 19.41596476 15.21974935 17.7228362 15.31640625 15.52734375 C15.35830078 14.62822266 15.40019531 13.72910156 15.44335938 12.80273438 C15.48267578 11.85720703 15.52199219 10.91167969 15.5625 9.9375 C15.60568359 8.98810547 15.64886719 8.03871094 15.69335938 7.06054688 C15.79979276 4.70718647 15.90181008 2.35371646 16 0 C17.65 0 19.3 0 21 0 C21 8.58 21 17.16 21 26 C19.68 26 18.36 26 17 26 C16.67 25.34 16.34 24.68 16 24 C15.46375 24.33 14.9275 24.66 14.375 25 C11.35724758 26.2706326 9.25007259 26.33854923 6 26 C3.625 24.625 3.625 24.625 2 23 C2 22.34 2 21.68 2 21 C1.34 21 0.68 21 0 21 C0 14.07 0 7.14 0 0 Z " fill="#171717" transform="translate(905,341)"/>
<path d="M0 0 C1.65 0 3.3 0 5 0 C7.53630629 5.55571853 9.31108451 11.12900806 11 17 C12.98 11.39 14.96 5.78 17 0 C18.65 0 20.3 0 22 0 C13.17516694 30.80236914 13.17516694 30.80236914 7 36 C4.25 36.25 4.25 36.25 2 36 C2 34.68 2 33.36 2 32 C3.65 31.34 5.3 30.68 7 30 C8.90112465 22.98275979 6.55196496 17.691472 4.0625 11.0625 C3.67642578 9.99708984 3.29035156 8.93167969 2.89257812 7.83398438 C1.94211244 5.2172702 0.97768826 2.60663844 0 0 Z " fill="#111111" transform="translate(854,341)"/>
<path d="M0 0 C2.5646165 2.18746702 2.8573244 3.51116765 3.125 6.8125 C1.805 6.8125 0.485 6.8125 -0.875 6.8125 C-1.535 5.8225 -2.195 4.8325 -2.875 3.8125 C-6.45857241 3.56234127 -6.45857241 3.56234127 -9.875 3.8125 C-9.875 5.1325 -9.875 6.4525 -9.875 7.8125 C-9.11574219 8.06644531 -8.35648438 8.32039063 -7.57421875 8.58203125 C-6.58035156 8.92621094 -5.58648438 9.27039063 -4.5625 9.625 C-3.08330078 10.12966797 -3.08330078 10.12966797 -1.57421875 10.64453125 C1.02346898 11.76856689 2.41030893 12.59483289 4.125 14.8125 C4.5625 17.25 4.5625 17.25 4.125 19.8125 C1.8772146 22.60285429 0.54769984 23.67160005 -2.875 24.8125 C-9.90334008 25.37930162 -9.90334008 25.37930162 -13.875 23.0625 C-15.875 20.8125 -15.875 20.8125 -15.875 16.8125 C-14.555 16.8125 -13.235 16.8125 -11.875 16.8125 C-11.215 17.8025 -10.555 18.7925 -9.875 19.8125 C-7.89752878 20.17547936 -7.89752878 20.17547936 -5.75 20 C-4.47125 19.938125 -3.1925 19.87625 -1.875 19.8125 C-2.205 18.1625 -2.535 16.5125 -2.875 14.8125 C-3.56207031 14.63074219 -4.24914063 14.44898438 -4.95703125 14.26171875 C-5.85808594 14.01035156 -6.75914063 13.75898438 -7.6875 13.5 C-8.58082031 13.25636719 -9.47414063 13.01273437 -10.39453125 12.76171875 C-12.97851282 11.77288801 -14.25239084 11.0388707 -15.875 8.8125 C-15.875 5.3125 -15.875 5.3125 -14.875 1.8125 C-10.46629631 -2.20720043 -5.36535817 -2.2161262 0 0 Z " fill="#111111" transform="translate(1060.875,342.1875)"/>
<path d="M0 0 C0.43621762 5.34366582 0.49303303 9.90653975 -2.55078125 14.48828125 C-6.14211094 18.23449309 -10.56335196 19.92253431 -15.703125 20.0859375 C-19.93295315 19.7520037 -22.41475438 19.39016375 -26 17 C-26 16.34 -26 15.68 -26 15 C-25.10539062 14.50371094 -24.21078125 14.00742187 -23.2890625 13.49609375 C-16.55888945 9.72600236 -10.0991451 5.85499504 -3.890625 1.25 C-2 0 -2 0 0 0 Z " fill="#F2F2F2" transform="translate(308,383)"/>
<path d="M0 0 C2.87305972 1.40460697 4.74510999 2.74510999 7 5 C7 5.99 7 6.98 7 8 C5.35 8 3.7 8 2 8 C2 7.01 2 6.02 2 5 C-0.97 5 -3.94 5 -7 5 C-7 6.32 -7 7.64 -7 9 C-6.15695312 9.26554687 -5.31390625 9.53109375 -4.4453125 9.8046875 C-2.80175781 10.33449219 -2.80175781 10.33449219 -1.125 10.875 C0.51082031 11.39707031 0.51082031 11.39707031 2.1796875 11.9296875 C5 13 5 13 7 15 C7.375 17.875 7.375 17.875 7 21 C5.1329009 23.30275556 3.64352259 24.67823871 1 26 C-3.73997836 26.47399784 -6.68423874 26.71285357 -10.5 23.6875 C-13 21 -13 21 -13 18 C-11.68 18 -10.36 18 -9 18 C-8.34 18.99 -7.68 19.98 -7 21 C-5.02252878 21.36297936 -5.02252878 21.36297936 -2.875 21.1875 C-1.59625 21.125625 -0.3175 21.06375 1 21 C1.33 19.68 1.66 18.36 2 17 C1.32453125 16.81824219 0.6490625 16.63648438 -0.046875 16.44921875 C-0.93890625 16.19785156 -1.8309375 15.94648438 -2.75 15.6875 C-3.63171875 15.44386719 -4.5134375 15.20023437 -5.421875 14.94921875 C-8.11748509 13.95674413 -9.9116806 12.96885032 -12 11 C-12.5625 7.5625 -12.5625 7.5625 -12 4 C-8.43754928 -0.21016903 -5.35404223 -0.66925528 0 0 Z " fill="#0E0E0E" transform="translate(1637,341)"/>
<path d="M0 0 C1.32 0 2.64 0 4 0 C4.33 0.66 4.66 1.32 5 2 C5.99 1.34 6.98 0.68 8 0 C12.1496744 -0.53792076 14.21577565 -0.53639588 17.70703125 1.8515625 C21.04185402 6.43055254 20.55292837 10.30484085 20.3125 15.8125 C20.28994141 16.79154297 20.26738281 17.77058594 20.24414062 18.77929688 C20.18539727 21.18777455 20.10332129 23.59309078 20 26 C18.68 26 17.36 26 16 26 C15.97494385 25.39937744 15.9498877 24.79875488 15.92407227 24.17993164 C15.8084472 21.47388563 15.68557064 18.76821717 15.5625 16.0625 C15.52318359 15.11697266 15.48386719 14.17144531 15.44335938 13.19726562 C15.40146484 12.29814453 15.35957031 11.39902344 15.31640625 10.47265625 C15.27974854 9.64000244 15.24309082 8.80734863 15.20532227 7.94946289 C15.20632897 5.99661142 15.20632897 5.99661142 14 5 C10.54178598 4.74996036 10.54178598 4.74996036 7 5 C4.6031335 7.3968665 4.71718867 8.07028314 4.5859375 11.3515625 C4.52792969 12.62773437 4.52792969 12.62773437 4.46875 13.9296875 C4.4378125 14.81914062 4.406875 15.70859375 4.375 16.625 C4.31699219 17.97078125 4.31699219 17.97078125 4.2578125 19.34375 C4.16340643 21.5622927 4.07783252 23.78082403 4 26 C2.68 26 1.36 26 0 26 C0 17.42 0 8.84 0 0 Z " fill="#060606" transform="translate(794,341)"/>
<path d="M0 0 C3.375 1.6875 3.375 1.6875 6 4 C6.875 6.75 6.875 6.75 7 9 C5.35 9 3.7 9 2 9 C1.34 7.68 0.68 6.36 0 5 C-3.41656024 4.83322718 -3.41656024 4.83322718 -7 5 C-9.28027649 6.85637822 -9.28027649 6.85637822 -9.265625 9.75 C-9.26046875 10.8225 -9.2553125 11.895 -9.25 13 C-9.25515625 14.0725 -9.2603125 15.145 -9.265625 16.25 C-9.28027649 19.14362178 -9.28027649 19.14362178 -7 21 C-3.54213985 21.50007794 -3.54213985 21.50007794 0 21 C1.70532323 19.05990478 1.70532323 19.05990478 3 17 C4.32 17 5.64 17 7 17 C6.4568634 20.80195622 4.84334437 22.50130343 2 25 C-1.21604589 26.60802295 -4.5120785 26.46193202 -8 26 C-11.88930994 23.97079482 -12.81659975 22.46248759 -14.4375 18.375 C-15.39757377 13.39753016 -14.8860925 8.70276808 -13 4 C-8.94053677 0.03494289 -5.57875661 -0.79696523 0 0 Z " fill="#151515" transform="translate(1437,341)"/>
<path d="M0 0 C1.65 0 3.3 0 5 0 C9 6.75 9 6.75 9 9 C9.66 9 10.32 9 11 9 C11.28875 8.2575 11.5775 7.515 11.875 6.75 C12.82302644 4.43260203 13.84845911 2.22082885 15 0 C16.98 0 18.96 0 21 0 C20.48308594 0.73605469 19.96617188 1.47210938 19.43359375 2.23046875 C18.44552734 3.69419922 18.44552734 3.69419922 17.4375 5.1875 C16.77621094 6.15042969 16.11492187 7.11335938 15.43359375 8.10546875 C13.79038188 10.84556431 13.79038188 10.84556431 14.09375 13.56640625 C15.10650688 16.28600771 16.38391222 18.3848976 18.0625 20.75 C21 24.92470588 21 24.92470588 21 26 C18.8125 26.5 18.8125 26.5 16 26 C14.4610868 24.04575512 13.29691519 22.03371633 12.11328125 19.84765625 C11.12923023 17.84157239 11.12923023 17.84157239 9 17 C8.731875 17.7425 8.46375 18.485 8.1875 19.25 C7.01767447 21.95906965 6.08687638 23.91312362 4 26 C1.39453125 26.10546875 1.39453125 26.10546875 -1 26 C-0.48308594 25.27554687 0.03382812 24.55109375 0.56640625 23.8046875 C1.22511719 22.83789062 1.88382813 21.87109375 2.5625 20.875 C3.22378906 19.92367188 3.88507813 18.97234375 4.56640625 17.9921875 C6.29953031 14.3748223 6.15788559 12.79414295 5 9 C3.8728076 6.94565548 3.8728076 6.94565548 2.4375 5.25 C0 2.18413598 0 2.18413598 0 0 Z " fill="#0E0E0E" transform="translate(1508,341)"/>
<path d="M0 0 C3.6875 0.375 3.6875 0.375 6.125 2.4375 C8.07451789 6.10259364 8.20051543 8.27087659 7.6875 12.375 C6.53110194 14.68779611 5.51340172 16.54909828 3.6875 18.375 C0.375 18.75 0.375 18.75 -3.3125 18.375 C-6.52100753 15.66010901 -7.22863572 14.04591421 -7.75 9.875 C-7.08022735 4.51681878 -5.54227301 0.62742713 0 0 Z " fill="#E1E1E1" transform="translate(889.3125,344.625)"/>
<path d="M0 0 C3.5625 0.5 3.5625 0.5 6 1.875 C8.37272994 5.86118629 8.36773361 9.9732813 7.5625 14.5 C6.28515625 16.78125 6.28515625 16.78125 4.5625 18.5 C2.625 19.03125 2.625 19.03125 0.5625 19 C-0.118125 19.0103125 -0.79875 19.020625 -1.5 19.03125 C-3.4375 18.5 -3.4375 18.5 -5.1640625 16.78125 C-6.6404917 14.13635842 -6.84005111 12.51225511 -6.8125 9.5 C-6.82023437 8.654375 -6.82796875 7.80875 -6.8359375 6.9375 C-6.08924692 2.36951058 -4.55875864 0.66309217 0 0 Z " fill="#E1E1E1" transform="translate(1314.4375,344.5)"/>
<path d="M0 0 C3.5625 0.5 3.5625 0.5 6 1.875 C8.37272994 5.86118629 8.36773361 9.9732813 7.5625 14.5 C6.28515625 16.78125 6.28515625 16.78125 4.5625 18.5 C2.625 19.03125 2.625 19.03125 0.5625 19 C-0.118125 19.0103125 -0.79875 19.020625 -1.5 19.03125 C-3.4375 18.5 -3.4375 18.5 -5.1640625 16.78125 C-6.6404917 14.13635842 -6.84005111 12.51225511 -6.8125 9.5 C-6.82023437 8.654375 -6.82796875 7.80875 -6.8359375 6.9375 C-6.08924692 2.36951058 -4.55875864 0.66309217 0 0 Z " fill="#E1E1E1" transform="translate(1105.4375,344.5)"/>
<path d="M0 0 C1.65 0 3.3 0 5 0 C5 1.98 5 3.96 5 6 C6.65 6 8.3 6 10 6 C10 7.32 10 8.64 10 10 C8.35 10 6.7 10 5 10 C5 15.94 5 21.88 5 28 C6.65 28 8.3 28 10 28 C10 29.32 10 30.64 10 32 C3.57938299 32.48457487 3.57938299 32.48457487 1.28125 30.5625 C-0.65993847 26.68012306 -0.31768369 23.0226955 -0.1875 18.75 C-0.17396484 17.90953125 -0.16042969 17.0690625 -0.14648438 16.203125 C-0.11123464 14.13514062 -0.0574302 12.06748729 0 10 C-1.65 10 -3.3 10 -5 10 C-5 8.68 -5 7.36 -5 6 C-3.35 6 -1.7 6 0 6 C0 4.02 0 2.04 0 0 Z " fill="#202020" transform="translate(1385,335)"/>
<path d="M0 0 C1.65 0 3.3 0 5 0 C5 1.98 5 3.96 5 6 C6.65 6 8.3 6 10 6 C10 7.32 10 8.64 10 10 C8.35 10 6.7 10 5 10 C5 15.94 5 21.88 5 28 C6.65 28 8.3 28 10 28 C10 29.32 10 30.64 10 32 C3.57938299 32.48457487 3.57938299 32.48457487 1.28125 30.5625 C-0.65993847 26.68012306 -0.31768369 23.0226955 -0.1875 18.75 C-0.17396484 17.90953125 -0.16042969 17.0690625 -0.14648438 16.203125 C-0.11123464 14.13514062 -0.0574302 12.06748729 0 10 C-1.65 10 -3.3 10 -5 10 C-5 8.68 -5 7.36 -5 6 C-3.35 6 -1.7 6 0 6 C0 4.02 0 2.04 0 0 Z " fill="#212121" transform="translate(1254,335)"/>
<path d="M0 0 C3.5 0.4375 3.5 0.4375 5.1953125 1.58984375 C7.0576558 4.22723411 6.89851255 6.23979286 6.875 9.4375 C6.88273438 10.489375 6.89046875 11.54125 6.8984375 12.625 C6.5 15.4375 6.5 15.4375 5.1953125 17.28515625 C2.31079424 19.24583111 -0.14328639 18.8570892 -3.5 18.4375 C-5.58944523 16.32398282 -6.41720152 14.94403186 -6.8984375 12 C-6.89070312 11.154375 -6.88296875 10.30875 -6.875 9.4375 C-6.88273438 8.591875 -6.89046875 7.74625 -6.8984375 6.875 C-6.14375336 2.25810877 -4.62230252 0.57778781 0 0 Z " fill="#DDDDDD" transform="translate(829.5,344.5625)"/>
<path d="M0 0 C0.99 0.66 1.98 1.32 3 2 C3.3984375 5.1875 3.3984375 5.1875 3.375 9 C3.38273438 10.258125 3.39046875 11.51625 3.3984375 12.8125 C3.26695312 13.864375 3.13546875 14.91625 3 16 C-0.46923881 18.31282587 -1.92205575 18.42478586 -6 18 C-8.03667615 16.45493534 -8.86073078 15.27853844 -10 13 C-10.50807587 8.68551969 -10.74196064 5.17001485 -8.375 1.4375 C-5.33244416 -0.40404695 -3.502304 -0.44710264 0 0 Z " fill="#DEDEDE" transform="translate(982,345)"/>
<path d="M0 0 C3.5625 0.3125 3.5625 0.3125 5.4375 1.625 C7.94341406 5.38387109 7.79300219 8.93295839 7.5625 13.3125 C6.54513229 16.07392665 6.20079259 16.99335371 3.5625 18.3125 C0.0625 18.5 0.0625 18.5 -3.4375 18.3125 C-5.4375 16.3125 -5.4375 16.3125 -5.703125 13.125 C-5.69796875 11.866875 -5.6928125 10.60875 -5.6875 9.3125 C-5.69265625 8.054375 -5.6978125 6.79625 -5.703125 5.5 C-5.32526485 0.96567817 -4.50674336 0.40970394 0 0 Z " fill="#E0E0E0" transform="translate(1542.4375,344.6875)"/>
<path d="M0 0 C0 1.32 0 2.64 0 4 C-1.98 4.66 -3.96 5.32 -6 6 C-6.33 7.65 -6.66 9.3 -7 11 C-5.02 11 -3.04 11 -1 11 C-1 11.99 -1 12.98 -1 14 C-2.98 14 -4.96 14 -7 14 C-7 21.59 -7 29.18 -7 37 C-8.32 37 -9.64 37 -11 37 C-11 29.41 -11 21.82 -11 14 C-12.32 14 -13.64 14 -15 14 C-15 13.01 -15 12.02 -15 11 C-13.68 11 -12.36 11 -11 11 C-11.103125 9.9275 -11.20625 8.855 -11.3125 7.75 C-11 4 -11 4 -8.875 1.5625 C-5.61672415 -0.20830209 -3.65236803 -0.33975517 0 0 Z " fill="#050505" transform="translate(1168,330)"/>
<path d="M0 0 C1.65 0 3.3 0 5 0 C5 12.21 5 24.42 5 37 C3.35 37 1.7 37 0 37 C0 24.79 0 12.58 0 0 Z " fill="#1D1D1D" transform="translate(1133,330)"/>
<path d="M0 0 C1.32 0 2.64 0 4 0 C4 1.98 4 3.96 4 6 C5.65 6 7.3 6 9 6 C9 6.99 9 7.98 9 9 C7.35 9 5.7 9 4 9 C4.33 14.94 4.66 20.88 5 27 C6.32 27.33 7.64 27.66 9 28 C9 29.32 9 30.64 9 32 C3.57831325 32.48192771 3.57831325 32.48192771 1.3125 30.59375 C-0.72139116 26.57439367 -0.31516058 22.68211356 -0.1875 18.25 C-0.17396484 17.36183594 -0.16042969 16.47367187 -0.14648438 15.55859375 C-0.11121309 13.37177422 -0.06192752 11.18620034 0 9 C-1.65 9 -3.3 9 -5 9 C-5 8.01 -5 7.02 -5 6 C-3.35 6 -1.7 6 0 6 C0 4.02 0 2.04 0 0 Z " fill="#060606" transform="translate(1082,335)"/>
<path d="M0 0 C4.33333333 0 8.66666667 0 13 0 C13 1.32 13 2.64 13 4 C10.69 4.66 8.38 5.32 6 6 C5.67 12.6 5.34 19.2 5 26 C3.35 26 1.7 26 0 26 C0 17.42 0 8.84 0 0 Z " fill="#181818" transform="translate(931,341)"/>
<path d="M0 0 C4.33333333 0 8.66666667 0 13 0 C13 1.32 13 2.64 13 4 C10.69 4.66 8.38 5.32 6 6 C5.67 12.6 5.34 19.2 5 26 C3.35 26 1.7 26 0 26 C0 17.42 0 8.84 0 0 Z " fill="#181818" transform="translate(767,341)"/>
<path d="M0 0 C10.48788962 -0.37016081 10.48788962 -0.37016081 12.83203125 1.32421875 C14.64548905 3.92613646 14.38474673 5.92202612 14 9 C12.83203125 10.67578125 12.83203125 10.67578125 11 12 C7.29631297 12.40199208 3.73655831 12.13187853 0 12 C0 8.04 0 4.08 0 0 Z " fill="#DFDFDF" transform="translate(744,351)"/>
<path d="M0 0 C1.32 0 2.64 0 4 0 C4.33 0.66 4.66 1.32 5 2 C5.99 1.34 6.98 0.68 8 0 C9.32 0 10.64 0 12 0 C12 1.32 12 2.64 12 4 C10.02 4.66 8.04 5.32 6 6 C5.67 12.6 5.34 19.2 5 26 C3.35 26 1.7 26 0 26 C0 17.42 0 8.84 0 0 Z " fill="#141414" transform="translate(1357,341)"/>
<path d="M0 0 C9.625 -0.25 9.625 -0.25 13 2 C13.4375 4.9375 13.4375 4.9375 13 8 C11.5625 9.875 11.5625 9.875 9 11 C5.95209387 11.23606846 3.06696813 11.13530742 0 11 C0 7.37 0 3.74 0 0 Z " fill="#DEDEDE" transform="translate(744,336)"/>
<path d="M0 0 C3.73762581 -0.29314712 6.31045291 -0.3328848 9.71875 1.3125 C13.32200308 5.55742828 12.53404942 9.87827865 12.3125 15.25 C12.27866211 16.796875 12.27866211 16.796875 12.24414062 18.375 C12.18527163 20.91814065 12.10310065 23.45833113 12 26 C10.68 26 9.36 26 8 26 C7.97494385 25.39937744 7.9498877 24.79875488 7.92407227 24.17993164 C7.8084472 21.47388563 7.68557064 18.76821717 7.5625 16.0625 C7.52318359 15.11697266 7.48386719 14.17144531 7.44335938 13.19726562 C7.40146484 12.29814453 7.35957031 11.39902344 7.31640625 10.47265625 C7.27974854 9.64000244 7.24309082 8.80734863 7.20532227 7.94946289 C7.20632897 5.99661142 7.20632897 5.99661142 6 5 C4.65252916 4.76924918 3.29622435 4.58846937 1.9375 4.4375 C0.638125 4.293125 -0.66125 4.14875 -2 4 C-1.34 2.68 -0.68 1.36 0 0 Z " fill="#090909" transform="translate(1456,341)"/>
<path d="M0 0 C3.73762581 -0.29314712 6.31045291 -0.3328848 9.71875 1.3125 C13.32200308 5.55742828 12.53404942 9.87827865 12.3125 15.25 C12.27866211 16.796875 12.27866211 16.796875 12.24414062 18.375 C12.18527163 20.91814065 12.10310065 23.45833113 12 26 C10.68 26 9.36 26 8 26 C7.97494385 25.39937744 7.9498877 24.79875488 7.92407227 24.17993164 C7.8084472 21.47388563 7.68557064 18.76821717 7.5625 16.0625 C7.52318359 15.11697266 7.48386719 14.17144531 7.44335938 13.19726562 C7.40146484 12.29814453 7.35957031 11.39902344 7.31640625 10.47265625 C7.27974854 9.64000244 7.24309082 8.80734863 7.20532227 7.94946289 C7.20632897 5.99661142 7.20632897 5.99661142 6 5 C4.65252916 4.76924918 3.29622435 4.58846937 1.9375 4.4375 C0.638125 4.293125 -0.66125 4.14875 -2 4 C-1.34 2.68 -0.68 1.36 0 0 Z " fill="#090909" transform="translate(1276,341)"/>
<path d="M0 0 C1.65 0 3.3 0 5 0 C5 8.58 5 17.16 5 26 C3.35 26 1.7 26 0 26 C0 17.42 0 8.84 0 0 Z " fill="#1B1B1B" transform="translate(1614,341)"/>
<path d="M0 0 C1.65 0 3.3 0 5 0 C5 8.58 5 17.16 5 26 C3.35 26 1.7 26 0 26 C0 17.42 0 8.84 0 0 Z " fill="#1B1B1B" transform="translate(1242,341)"/>
<path d="M0 0 C1.65 0 3.3 0 5 0 C5 8.58 5 17.16 5 26 C3.35 26 1.7 26 0 26 C0 17.42 0 8.84 0 0 Z " fill="#1B1B1B" transform="translate(1144,341)"/>
<path d="M0 0 C1.65 0 3.3 0 5 0 C5 8.58 5 17.16 5 26 C3.35 26 1.7 26 0 26 C0 17.42 0 8.84 0 0 Z " fill="#1B1B1B" transform="translate(958,341)"/>
<path d="M0 0 C1.65 0 3.3 0 5 0 C5 8.58 5 17.16 5 26 C3.35 26 1.7 26 0 26 C0 17.42 0 8.84 0 0 Z " fill="#1B1B1B" transform="translate(783,341)"/>
<path d="M0 0 C5.94 0 11.88 0 18 0 C16 5 16 5 14.375 6.3125 C10.8733226 7.32614346 7.60780311 7.61362225 4 7 C1.5 5.1875 1.5 5.1875 0 3 C0 2.01 0 1.02 0 0 Z " fill="#D8D8D8" transform="translate(1652,356)"/>
<path d="M0 0 C5.94 0 11.88 0 18 0 C16 5 16 5 14.375 6.3125 C10.8733226 7.32614346 7.60780311 7.61362225 4 7 C1.5 5.1875 1.5 5.1875 0 3 C0 2.01 0 1.02 0 0 Z " fill="#D8D8D8" transform="translate(1174,356)"/>
<path d="M0 0 C1.8871875 0.061875 1.8871875 0.061875 3.8125 0.125 C4.1725 5.525 4.1725 5.525 2.6875 8 C-0.00467543 9.61530526 -2.10903205 9.38699727 -5.1875 9.125 C-5.8475 8.795 -6.5075 8.465 -7.1875 8.125 C-7.375 5.25 -7.375 5.25 -7.1875 2.125 C-4.09861478 0.06574319 -3.47814073 -0.1140374 0 0 Z " fill="#D3D3D3" transform="translate(1031.1875,353.875)"/>
<path d="M0 0 C3.5625 0.375 3.5625 0.375 5.5 2.1875 C6.5625 4.375 6.5625 4.375 6.5625 7.375 C2.2725 7.375 -2.0175 7.375 -6.4375 7.375 C-5.07318773 0.55343866 -5.07318773 0.55343866 0 0 Z " fill="#D1D1D1" transform="translate(1494.4375,344.625)"/>
<path d="M0 0 C3.5625 0.375 3.5625 0.375 5.5 2.1875 C6.5625 4.375 6.5625 4.375 6.5625 7.375 C2.2725 7.375 -2.0175 7.375 -6.4375 7.375 C-5.07318773 0.55343866 -5.07318773 0.55343866 0 0 Z " fill="#D1D1D1" transform="translate(1408.4375,344.625)"/>
<path d="M0 0 C3.5 0.25 3.5 0.25 5.5 2.25 C5.5 3.9 5.5 5.55 5.5 7.25 C1.54 7.25 -2.42 7.25 -6.5 7.25 C-5.12318841 0.36594203 -5.12318841 0.36594203 0 0 Z " fill="#D3D3D3" transform="translate(1005.5,344.75)"/>
<path d="M0 0 C1.875 1.25 1.875 1.25 3 3 C3 4.32 3 5.64 3 7 C-1.29 7 -5.58 7 -10 7 C-9.34 5.02 -8.68 3.04 -8 1 C-5.20129973 -0.39935013 -3.09501208 -0.25265405 0 0 Z " fill="#D4D4D4" transform="translate(1662,345)"/>
<path d="M0 0 C1.875 1.25 1.875 1.25 3 3 C3 4.32 3 5.64 3 7 C-1.29 7 -5.58 7 -10 7 C-9.34 5.02 -8.68 3.04 -8 1 C-5.20129973 -0.39935013 -3.09501208 -0.25265405 0 0 Z " fill="#D4D4D4" transform="translate(1572,345)"/>
<path d="M0 0 C1.875 1.25 1.875 1.25 3 3 C3 4.32 3 5.64 3 7 C-1.29 7 -5.58 7 -10 7 C-9.34 5.02 -8.68 3.04 -8 1 C-5.20129973 -0.39935013 -3.09501208 -0.25265405 0 0 Z " fill="#D4D4D4" transform="translate(1184,345)"/>
<path d="M0 0 C0 0.66 0 1.32 0 2 C1.32 2.33 2.64 2.66 4 3 C0.29159052 6.55389242 -3.03684082 6.76365909 -8 7 C-8.99 6.34 -9.98 5.68 -11 5 C-11 4.01 -11 3.02 -11 2 C-9.5422647 1.664061 -8.08378894 1.33133376 -6.625 1 C-5.40683594 0.7215625 -5.40683594 0.7215625 -4.1640625 0.4375 C-2 0 -2 0 0 0 Z " fill="#DEDEDE" transform="translate(1347,365)"/>
<path d="M0 0 C0.33 0.99 0.66 1.98 1 3 C1.99 3.33 2.98 3.66 4 4 C0.57894157 7.14737376 -2.38807338 7.83528833 -7 8 C-9.4375 6.5625 -9.4375 6.5625 -11 5 C-10.67 4.01 -10.34 3.02 -10 2 C-9.04287109 1.90912109 -9.04287109 1.90912109 -8.06640625 1.81640625 C-6.82697266 1.69072266 -6.82697266 1.69072266 -5.5625 1.5625 C-4.73878906 1.48128906 -3.91507813 1.40007812 -3.06640625 1.31640625 C-1.01337975 1.21069185 -1.01337975 1.21069185 0 0 Z " fill="#D8D8D8" transform="translate(921,364)"/>
<path d="M0 0 C0 0.66 0 1.32 0 2 C1.65 2 3.3 2 5 2 C2.94766315 4.2477975 1.99332739 5.0022242 -1 6 C-2.56118428 6.06740865 -4.1250252 6.08514456 -5.6875 6.0625 C-6.89986328 6.04896484 -6.89986328 6.04896484 -8.13671875 6.03515625 C-9.05904297 6.01775391 -9.05904297 6.01775391 -10 6 C-10.33 4.68 -10.66 3.36 -11 2 C-9.5422647 1.664061 -8.08378894 1.33133376 -6.625 1 C-5.40683594 0.7215625 -5.40683594 0.7215625 -4.1640625 0.4375 C-2 0 -2 0 0 0 Z " fill="#DEDEDE" transform="translate(1035,365)"/>
<path d="M0 0 C0 0.66 0 1.32 0 2 C0.99 2.33 1.98 2.66 3 3 C0.39791402 5.60208598 -1.54439038 6.24088781 -5.125 6.3125 C-9 6 -9 6 -11 4 C-10.67 3.01 -10.34 2.02 -10 1 C-9.05125 1.020625 -8.1025 1.04125 -7.125 1.0625 C-4.31337204 1.00626744 -2.6726858 0 0 0 Z " fill="#DCDCDC" transform="translate(985,365)"/>
<path d="M0 0 C-0.99 0.86625 -1.98 1.7325 -3 2.625 C-7.13451055 7.31271971 -6.4720293 12.22199773 -6.2109375 18.18359375 C-6.14132812 19.11300781 -6.07171875 20.04242188 -6 21 C-6.66 21.33 -7.32 21.66 -8 22 C-8.08685287 18.70849875 -8.14033895 15.4172904 -8.1875 12.125 C-8.21263672 11.18785156 -8.23777344 10.25070312 -8.26367188 9.28515625 C-8.27333984 8.38925781 -8.28300781 7.49335938 -8.29296875 6.5703125 C-8.3086792 5.74289551 -8.32438965 4.91547852 -8.34057617 4.06298828 C-8.22818604 3.38220215 -8.1157959 2.70141602 -8 2 C-4.77208445 -0.1519437 -3.71599191 -0.20086443 0 0 Z " fill="#D0D0D0" transform="translate(944,345)"/>
<path d="M0 0 C1.3271261 3.9813783 1.06915913 7.85045227 1 12 C0.68417969 11.34515625 0.36835937 10.6903125 0.04296875 10.015625 C-2.31614787 7.68808355 -2.83401892 7.69802174 -6.01171875 7.609375 C-7.57079139 7.63591241 -9.12961831 7.68354401 -10.6875 7.75 C-11.48478516 7.76804687 -12.28207031 7.78609375 -13.10351562 7.8046875 C-15.06952449 7.85177753 -17.03491494 7.92352101 -19 8 C-19.33 9.32 -19.66 10.64 -20 12 C-20 10.35 -20 8.7 -20 7 C-14.39 7 -8.78 7 -3 7 C-3 5.02 -3 3.04 -3 1 C-2.67 1.66 -2.34 2.32 -2 3 C-1.34 3 -0.68 3 0 3 C0 2.01 0 1.02 0 0 Z " fill="#898989" transform="translate(1422,348)"/>
<path d="M0 0 C0.33 0 0.66 0 1 0 C1.2179335 4.03768571 1.41460506 8.07580513 1.59204102 12.11547852 C1.65528073 13.48815237 1.7242191 14.86057645 1.79907227 16.23266602 C1.90595412 18.21033891 1.99033025 20.18918718 2.07421875 22.16796875 C2.13182373 23.35672607 2.18942871 24.5454834 2.2487793 25.77026367 C1.9695854 29.39485248 1.19416925 31.13417877 -1 34 C-1.99 34.66 -2.98 35.32 -4 36 C-4.33 35.34 -4.66 34.68 -5 34 C-4.2884375 33.319375 -4.2884375 33.319375 -3.5625 32.625 C-0.51814855 29.45887449 -0.8137926 26.73889988 -0.68359375 22.4609375 C-0.64169922 21.15898437 -0.59980469 19.85703125 -0.55664062 18.515625 C-0.51682701 17.13541955 -0.47711478 15.75521117 -0.4375 14.375 C-0.39430593 12.98696585 -0.35069135 11.59894472 -0.30664062 10.2109375 C-0.20028 6.80739744 -0.09825286 3.40378222 0 0 Z " fill="#B4B4B4" transform="translate(840,341)"/>
<path d="M0 0 C-1.06893218 1.03590338 -2.15578488 2.05333942 -3.25 3.0625 C-4.15492187 3.91521484 -4.15492187 3.91521484 -5.078125 4.78515625 C-7 6 -7 6 -9.234375 5.68359375 C-9.81703125 5.45800781 -10.3996875 5.23242188 -11 5 C-11.33 3.68 -11.66 2.36 -12 1 C-10.37681021 0.63762737 -8.7513642 0.28534843 -7.125 -0.0625 C-6.22007813 -0.25972656 -5.31515625 -0.45695312 -4.3828125 -0.66015625 C-2 -1 -2 -1 0 0 Z " fill="#DDDDDD" transform="translate(1642,366)"/>
<path d="M0 0 C0.99 0 1.98 0 3 0 C3 8.58 3 17.16 3 26 C2.67 26 2.34 26 2 26 C1.1611484 18.48905184 0.9226459 11.49175465 2 4 C1.34 4 0.68 4 0 4 C0 2.68 0 1.36 0 0 Z " fill="#DADADA" transform="translate(780,341)"/>
<path d="M0 0 C0 6.27 0 12.54 0 19 C-0.33 19 -0.66 19 -1 19 C-1 13.06 -1 7.12 -1 1 C-3.1346875 1.7115625 -3.1346875 1.7115625 -5.3125 2.4375 C-9.15625 3.71875 -9.15625 3.71875 -13 5 C-12.67 4.01 -12.34 3.02 -12 2 C-7.71104977 0.43288357 -4.61567529 0 0 0 Z " fill="#737373" transform="translate(1601,344)"/>
<path d="M0 0 C1.32 1.32 2.64 2.64 4 4 C3.953125 5.96484375 3.953125 5.96484375 3.25 7.9375 C2.24723745 11.09325274 1.79084373 13.65349967 2 17 C1.34 17.33 0.68 17.66 0 18 C0 12.06 0 6.12 0 0 Z " fill="#DDDDDD" transform="translate(1588,349)"/>
<path d="M0 0 C-3.32307692 3.93846154 -3.32307692 3.93846154 -6.75 4.25 C-7.4925 4.1675 -8.235 4.085 -9 4 C-9.33 2.68 -9.66 1.36 -10 0 C-3.375 -1.125 -3.375 -1.125 0 0 Z " fill="#DEDEDE" transform="translate(1321,367)"/>
<path d="M0 0 C-3.32307692 3.93846154 -3.32307692 3.93846154 -6.75 4.25 C-7.4925 4.1675 -8.235 4.085 -9 4 C-9.33 2.68 -9.66 1.36 -10 0 C-3.375 -1.125 -3.375 -1.125 0 0 Z " fill="#DEDEDE" transform="translate(1112,367)"/>
<path d="M0 0 C0.33 0 0.66 0 1 0 C1 4.29 1 8.58 1 13 C-1.475 12.01 -1.475 12.01 -4 11 C-3.2884375 10.2265625 -3.2884375 10.2265625 -2.5625 9.4375 C-0.57190593 6.33217325 -0.34939182 3.63367496 0 0 Z " fill="#D3D3D3" transform="translate(984,330)"/>
<path d="M0 0 C0.66 0.33 1.32 0.66 2 1 C1.67 1.33 1.34 1.66 1 2 C1.66 2.66 2.32 3.32 3 4 C-1.455 5.485 -1.455 5.485 -6 7 C-6.66 6.34 -7.32 5.68 -8 5 C-6.71475739 4.13619741 -5.42157581 3.28419631 -4.125 2.4375 C-3.04605469 1.72400391 -3.04605469 1.72400391 -1.9453125 0.99609375 C-1.30335938 0.66738281 -0.66140625 0.33867188 0 0 Z " fill="#DADADA" transform="translate(134,117)"/>
<path d="M0 0 C2.51699845 2.51699845 3.10964078 4.57554146 4 8 C3.625 10.375 3.625 10.375 3 12 C2.34 12 1.68 12 1 12 C0.01751476 7.9472484 -0.08159574 4.16138263 0 0 Z " fill="#C7C7C7" transform="translate(859,356)"/>
<path d="M0 0 C1.98 0.99 1.98 0.99 4 2 C3.34 2.66 2.68 3.32 2 4 C1.54188325 5.97235333 1.54188325 5.97235333 1.375 8.125 C1.25125 9.40375 1.1275 10.6825 1 12 C0.67 12 0.34 12 0 12 C0 8.04 0 4.08 0 0 Z " fill="#CCCCCC" transform="translate(1537,365)"/>
<path d="M0 0 C0.66 0.33 1.32 0.66 2 1 C-0.64 3.64 -3.28 6.28 -6 9 C-6.33 8.34 -6.66 7.68 -7 7 C-2.25 1.125 -2.25 1.125 0 0 Z " fill="#414141" transform="translate(163,337)"/>
<path d="M0 0 C0.33 0 0.66 0 1 0 C1 1.65 1 3.3 1 5 C0.4225 5.0825 -0.155 5.165 -0.75 5.25 C-3.6159304 6.20531013 -4.9990764 7.78469173 -7 10 C-6.67 8.35 -6.34 6.7 -6 5 C-4.02 4.67 -2.04 4.34 0 4 C0 2.68 0 1.36 0 0 Z " fill="#ACACAC" transform="translate(1369,341)"/>
<path d="M0 0 C1.98 0.495 1.98 0.495 4 1 C3.67 2.32 3.34 3.64 3 5 C1.68 4.67 0.36 4.34 -1 4 C-0.67 2.68 -0.34 1.36 0 0 Z " fill="#0D0D0D" transform="translate(1615,332)"/>
<path d="M0 0 C1.98 0.495 1.98 0.495 4 1 C3.67 2.32 3.34 3.64 3 5 C1.68 4.67 0.36 4.34 -1 4 C-0.67 2.68 -0.34 1.36 0 0 Z " fill="#0D0D0D" transform="translate(1243,332)"/>
<path d="M0 0 C1.98 0.495 1.98 0.495 4 1 C3.67 2.32 3.34 3.64 3 5 C1.68 4.67 0.36 4.34 -1 4 C-0.67 2.68 -0.34 1.36 0 0 Z " fill="#0D0D0D" transform="translate(1145,332)"/>
<path d="M0 0 C1.98 0.495 1.98 0.495 4 1 C3.67 2.32 3.34 3.64 3 5 C1.68 4.67 0.36 4.34 -1 4 C-0.67 2.68 -0.34 1.36 0 0 Z " fill="#0D0D0D" transform="translate(959,332)"/>
<path d="M0 0 C1.98 0.495 1.98 0.495 4 1 C3.67 2.32 3.34 3.64 3 5 C1.68 4.67 0.36 4.34 -1 4 C-0.67 2.68 -0.34 1.36 0 0 Z " fill="#0D0D0D" transform="translate(784,332)"/>
<path d="M0 0 C0.66 0 1.32 0 2 0 C0.83857315 4.35535069 -0.07699505 6.64619703 -4 9 C-4.33 8.34 -4.66 7.68 -5 7 C-4.54625 6.5875 -4.0925 6.175 -3.625 5.75 C-1.94049626 3.93591905 -1.00734029 2.24714373 0 0 Z " fill="#CDCDCD" transform="translate(840,368)"/>
<path d="M0 0 C2.31 0.33 4.62 0.66 7 1 C6.34 2.65 5.68 4.3 5 6 C4.34 6 3.68 6 3 6 C2.01 4.02 1.02 2.04 0 0 Z " fill="#C8C8C8" transform="translate(1514,344)"/>
<path d="M0 0 C-4 1.33333333 -8 2.66666667 -12 4 C-11.67 3.01 -11.34 2.02 -11 1 C-6.90275533 -0.54613006 -4.18142349 -1.29227216 0 0 Z " fill="#A7A7A7" transform="translate(1600,345)"/>
</svg>
