<?xml version="1.0" encoding="UTF-8"?>
<!-- Generator: visioncortex VTracer 0.6.4 -->
<svg version="1.1" xmlns="http://www.w3.org/2000/svg" width="500" height="500">
<path d="M0 0 C6.457 4.977 10.002 12.02 12.137 19.781 C12.203 22.093 12.222 24.406 12.199 26.719 C12.44 31.722 12.44 31.722 14.848 35.93 C17.203 37.69 19.644 39.222 22.137 40.781 C33.886 50.54 44.385 61.267 53.137 73.781 C53.678 74.528 54.22 75.274 54.777 76.043 C76.54 107.026 81.65 146.91 76.387 183.656 C75.017 191.242 72.664 198.516 70.137 205.781 C69.915 206.42 69.693 207.059 69.465 207.717 C62.338 227.791 45.574 259.063 26.137 268.781 C25.818 271.263 25.818 271.263 25.762 274.219 C25.204 282.031 23.696 288.873 17.699 294.281 C12.229 298.355 8.5 299.095 1.758 298.273 C-0.801 297.793 -3.103 297.097 -5.551 296.219 C-12.593 293.732 -17.265 294.778 -23.938 297.633 C-33.843 301.521 -44.348 303.442 -54.863 304.781 C-56.087 304.96 -57.31 305.14 -58.57 305.324 C-63.581 305.944 -68.571 305.932 -73.613 305.906 C-74.59 305.902 -75.568 305.898 -76.574 305.894 C-99.255 305.718 -120.514 300.868 -140.863 290.781 C-142.005 290.235 -143.147 289.688 -144.324 289.125 C-150.33 286.224 -156.087 283.181 -161.562 279.348 C-164.222 277.537 -166.97 275.921 -169.738 274.281 C-204.056 253.258 -248.819 219.249 -261.863 179.781 C-264.143 168.603 -263.447 159.174 -257.391 149.406 C-250.931 140.366 -241.773 135.357 -231.863 130.781 C-231.664 126.39 -232.049 122.481 -232.863 118.156 C-236.14 99.154 -232.471 82.313 -222.238 66.227 C-209.747 48.871 -188.206 39.358 -167.633 35.844 C-162.906 34.952 -160.088 33.39 -156.176 30.594 C-134.602 15.842 -107.018 7.252 -80.914 7.832 C-80.042 7.85 -79.17 7.868 -78.271 7.886 C-74.66 7.969 -71.051 8.06 -67.441 8.199 C-53.361 8.852 -53.361 8.852 -41.074 2.533 C-30.312 -5.995 -11.502 -7.524 0 0 Z M-38.863 9.781 C-38.863 10.441 -38.863 11.101 -38.863 11.781 C-37.701 12.122 -36.538 12.462 -35.34 12.812 C-22.935 16.535 -9.727 20.539 1.137 27.781 C2.457 27.781 3.777 27.781 5.137 27.781 C5.797 20.646 4.107 15.746 0.137 9.781 C-4.609 4.417 -9.347 2.145 -16.488 1.406 C-24.35 1.618 -32.827 4.751 -38.863 9.781 Z M-108.863 17.781 C-109.536 17.948 -110.209 18.114 -110.902 18.285 C-137.618 24.95 -164.909 39.454 -182.863 60.781 C-182.863 61.441 -182.863 62.101 -182.863 62.781 C-183.523 62.781 -184.183 62.781 -184.863 62.781 C-186.179 64.13 -186.179 64.13 -187.473 65.93 C-187.977 66.6 -188.482 67.271 -189.001 67.962 C-189.533 68.686 -190.065 69.41 -190.613 70.156 C-191.157 70.891 -191.7 71.625 -192.26 72.382 C-196.136 77.672 -199.751 83.001 -202.863 88.781 C-203.339 89.641 -203.815 90.501 -204.305 91.387 C-207.612 97.648 -210.253 104.099 -212.738 110.719 C-213.049 111.536 -213.359 112.353 -213.679 113.195 C-215.129 117.163 -216.297 120.486 -215.863 124.781 C-212.155 126.104 -209.497 125.461 -205.719 124.559 C-204.495 124.27 -203.271 123.982 -202.01 123.685 C-200.69 123.363 -199.37 123.041 -198.051 122.719 C-196.701 122.395 -195.35 122.072 -194 121.749 C-189.95 120.776 -185.906 119.782 -181.863 118.781 C-180.692 118.492 -179.522 118.203 -178.315 117.905 C-175.183 117.125 -172.053 116.332 -168.926 115.531 C-168.005 115.298 -167.084 115.064 -166.135 114.824 C-161.147 113.519 -156.545 111.947 -151.863 109.781 C-151.826 108.586 -151.789 107.391 -151.75 106.16 C-151.128 89.899 -151.128 89.899 -147.863 82.781 C-147.466 81.869 -147.069 80.956 -146.66 80.016 C-144.945 76.152 -143.301 72.452 -140.988 68.906 C-139.381 64.441 -140.225 60.54 -140.93 55.902 C-140.845 51.918 -139.629 50.557 -136.863 47.781 C-133.089 45.894 -128.439 46.284 -124.488 47.531 C-122.336 49.187 -121.689 50.168 -120.863 52.781 C-120.432 57.149 -120.199 61.09 -122.863 64.781 C-125.219 65.406 -125.219 65.406 -128.051 65.781 C-133.079 67.023 -135.037 68.549 -137.738 72.969 C-142.268 81.941 -146.654 92.604 -145.863 102.781 C-144.983 105.135 -144.983 105.135 -143.863 106.781 C-124.44 102.096 -105.013 91.877 -90.863 77.781 C-90.112 77.088 -89.36 76.394 -88.586 75.68 C-87.733 74.74 -87.733 74.74 -86.863 73.781 C-87.035 70.258 -87.881 68.755 -89.863 65.781 C-90.29 61.368 -90.443 58.915 -88.426 54.969 C-85.685 52.629 -84.862 52.56 -81.488 51.969 C-79.001 51.391 -79.001 51.391 -76.863 49.781 C-75.359 46.66 -74.292 43.627 -73.251 40.334 C-70.444 31.767 -65.241 24.159 -58.863 17.781 C-58.863 16.791 -58.863 15.801 -58.863 14.781 C-84.071 13.988 -84.071 13.988 -108.863 17.781 Z M-56.73 24.016 C-57.786 25.385 -57.786 25.385 -58.863 26.781 C-59.702 27.841 -59.702 27.841 -60.559 28.922 C-63.862 33.453 -66.11 38.31 -68.238 43.469 C-68.501 44.099 -68.765 44.729 -69.036 45.378 C-70.576 49.309 -71.23 52.568 -70.863 56.781 C-70.533 57.111 -70.203 57.441 -69.863 57.781 C-69.719 61.617 -69.687 65.104 -70.863 68.781 C-71.523 68.781 -72.183 68.781 -72.863 68.781 C-72.863 69.441 -72.863 70.101 -72.863 70.781 C-73.766 71.006 -74.668 71.23 -75.598 71.461 C-79.456 73.021 -80.682 74.575 -83.113 77.906 C-97.357 96.078 -120.966 105.406 -141.863 113.781 C-141.131 118.843 -140.237 121.817 -136.863 125.781 C-134.562 127.245 -132.237 128.501 -129.789 129.703 C-127.863 130.781 -127.863 130.781 -126.863 132.781 C-126.216 137.485 -126.225 140.772 -128.801 144.844 C-132.911 147.444 -136.123 147.838 -140.863 146.781 C-144.503 144.279 -145.612 142.629 -146.863 138.406 C-146.863 134.781 -146.863 134.781 -145.113 131.469 C-143.658 127.175 -144.032 126.38 -145.863 122.406 C-147.302 119.572 -148.077 118.13 -151.004 116.832 C-155.182 116.758 -158.676 118.034 -162.613 119.344 C-170.528 121.85 -178.471 123.999 -186.551 125.906 C-187.604 126.156 -188.658 126.406 -189.744 126.664 C-194.53 127.79 -199.322 128.888 -204.125 129.941 C-205.306 130.205 -205.306 130.205 -206.511 130.474 C-207.947 130.793 -209.386 131.103 -210.827 131.401 C-215.563 132.454 -215.563 132.454 -218.863 135.781 C-219.32 148.335 -208.328 159.54 -200.863 168.781 C-200.419 169.347 -199.974 169.914 -199.517 170.497 C-198.344 171.963 -197.108 173.377 -195.863 174.781 C-195.203 174.781 -194.543 174.781 -193.863 174.781 C-193.611 175.366 -193.358 175.952 -193.098 176.555 C-187.872 185.981 -173.223 194.764 -163.863 199.781 C-161.462 199.585 -161.462 199.585 -158.863 198.781 C-154.578 197.857 -151.696 197.488 -147.488 198.969 C-143.629 201.634 -143.629 201.634 -142.863 204.781 C-142.722 209.061 -143.154 211.894 -145.863 215.281 C-149.958 217.329 -153.373 217.72 -157.863 216.781 C-161.073 214.409 -162.535 212.569 -164.066 208.895 C-166.281 205.058 -169.041 203.312 -172.738 201.094 C-178.883 197.231 -184.411 193.014 -189.826 188.185 C-192.445 185.578 -192.445 185.578 -195.863 184.781 C-196.124 184.188 -196.384 183.595 -196.652 182.984 C-197.946 180.631 -199.252 179.325 -201.238 177.531 C-206.087 172.861 -209.917 167.521 -213.826 162.065 C-214.32 161.384 -214.815 160.702 -215.324 160 C-215.766 159.381 -216.207 158.761 -216.662 158.123 C-217.058 157.68 -217.455 157.237 -217.863 156.781 C-218.523 156.781 -219.183 156.781 -219.863 156.781 C-220.601 179.155 -214.659 199.877 -204.863 219.781 C-204.37 220.797 -203.876 221.813 -203.367 222.859 C-192.863 243.213 -176.102 261.452 -156.863 273.781 C-155.984 274.348 -155.984 274.348 -155.087 274.926 C-130.31 290.713 -103.702 298.008 -74.426 298.031 C-73.281 298.032 -73.281 298.032 -72.113 298.033 C-61.066 298.018 -50.594 297.639 -39.863 294.781 C-38.729 294.492 -38.729 294.492 -37.571 294.197 C-35.182 293.582 -32.803 292.94 -30.426 292.281 C-29.696 292.08 -28.966 291.879 -28.215 291.671 C-23.783 290.346 -23.783 290.346 -20.863 286.781 C-21.312 286.362 -21.762 285.944 -22.224 285.512 C-24.25 283.623 -26.275 281.733 -28.301 279.844 C-29.008 279.184 -29.715 278.525 -30.443 277.846 C-31.117 277.217 -31.79 276.589 -32.484 275.941 C-33.108 275.36 -33.731 274.779 -34.373 274.18 C-35.213 273.391 -36.048 272.596 -36.863 271.781 C-39.931 271.366 -43.001 271.009 -46.078 270.672 C-48.863 269.781 -48.863 269.781 -50.223 267.391 C-51.265 263.145 -51.428 260.089 -49.676 256.031 C-47.488 253.315 -46.26 252.553 -42.863 251.781 C-37.555 251.971 -34.597 252.99 -30.863 256.781 C-30.508 259.664 -30.508 259.664 -30.676 262.906 C-30.467 268.696 -29.272 271.241 -25.176 275.344 C-23.437 276.86 -21.669 278.345 -19.863 279.781 C-19.286 280.289 -18.708 280.797 -18.113 281.32 C-15.489 283.417 -13.996 283.788 -10.633 283.609 C-6.468 282.694 -3.299 281.088 0.262 278.844 C0.904 278.449 1.546 278.055 2.208 277.648 C8.871 273.471 15 268.687 21.137 263.781 C21.917 263.232 22.696 262.683 23.5 262.117 C24.04 261.676 24.58 261.235 25.137 260.781 C25.137 260.121 25.137 259.461 25.137 258.781 C25.714 258.534 26.292 258.286 26.887 258.031 C29.466 256.598 31.198 254.997 33.137 252.781 C33.137 252.121 33.137 251.461 33.137 250.781 C33.797 250.781 34.457 250.781 35.137 250.781 C37.081 248.445 38.903 246.103 40.699 243.656 C41.505 242.562 41.505 242.562 42.327 241.447 C43.943 239.234 45.543 237.01 47.137 234.781 C47.787 233.878 47.787 233.878 48.451 232.956 C68.004 205.431 75.109 168.859 69.887 135.711 C64.898 108.794 55.524 85.443 37.137 64.781 C36.397 63.921 35.657 63.062 34.895 62.176 C16.267 40.873 -8.231 26.924 -35.113 18.781 C-35.792 18.573 -36.47 18.366 -37.169 18.151 C-46.882 15.387 -50.47 16.418 -56.73 24.016 Z M-211.281 63.938 C-222.52 75.589 -227.284 91.231 -227.088 107.105 C-226.967 111.725 -226.623 116.225 -225.863 120.781 C-224.873 121.111 -223.883 121.441 -222.863 121.781 C-222.41 120.791 -221.956 119.801 -221.488 118.781 C-221.233 118.224 -220.978 117.668 -220.715 117.094 C-219.738 114.582 -219.738 114.582 -218.977 111.055 C-214.625 93.178 -203.583 75.537 -191.543 61.848 C-189.671 59.793 -189.671 59.793 -188.863 56.781 C-188.203 56.781 -187.543 56.781 -186.863 56.781 C-185.154 55.158 -183.489 53.488 -181.863 51.781 C-181.203 51.121 -180.543 50.461 -179.863 49.781 C-179.863 48.791 -179.863 47.801 -179.863 46.781 C-191.414 46.781 -203.015 56.566 -211.281 63.938 Z M-238.902 141.832 C-247.363 147.402 -254.308 153.621 -256.582 163.742 C-257.022 166.932 -256.535 169.647 -255.863 172.781 C-255.595 174.06 -255.327 175.339 -255.051 176.656 C-250.782 192.634 -240.227 205.26 -228.863 216.781 C-228.111 217.553 -227.358 218.325 -226.583 219.12 C-224.081 221.682 -221.568 224.234 -219.051 226.781 C-218.25 227.595 -217.45 228.409 -216.625 229.247 C-212.29 233.587 -208.051 237.487 -202.863 240.781 C-202.203 240.781 -201.543 240.781 -200.863 240.781 C-202.183 237.123 -203.914 233.865 -205.884 230.517 C-222.832 201.667 -226.212 171.728 -226.863 138.781 C-231.923 137.258 -234.457 139.275 -238.902 141.832 Z M9.262 280.594 C6.043 283.143 2.9 285.088 -0.863 286.781 C-0.863 287.771 -0.863 288.761 -0.863 289.781 C2.865 291.024 6.264 291.296 10.137 290.781 C13.166 289.508 13.166 289.508 15.137 286.781 C16.111 283.817 16.695 280.867 17.137 277.781 C12.82 277.781 12.379 278.021 9.262 280.594 Z " fill="#000000" transform="translate(342.86328125,97.21875)"/>
<path d="M0 0 C2.613 2.229 3.378 3.453 4.125 6.812 C4.125 12.051 4.05 13.823 0.438 17.688 C-2.875 19.812 -2.875 19.812 -5.855 20.379 C-9.282 22.006 -9.5 22.489 -10.852 25.848 C-11.425 27.515 -11.973 29.192 -12.5 30.875 C-13.052 32.534 -13.606 34.191 -14.164 35.848 C-14.435 36.667 -14.706 37.487 -14.986 38.331 C-16.167 41.627 -17.606 44.775 -19.106 47.937 C-20.025 49.88 -20.025 49.88 -20 52.438 C-18.209 56.218 -16.212 59.231 -12.875 61.812 C-10.311 62.66 -7.92 63.105 -5.242 63.426 C-2.728 63.836 -1.035 64.474 1.125 65.812 C3.983 69.951 4.601 73.138 3.777 77.98 C2.474 81.64 -0.57 83.16 -3.875 84.812 C-9.152 85.412 -11.762 84.084 -15.875 80.812 C-18.023 77.591 -18.054 77.063 -17.812 73.438 C-17.698 68.399 -19.121 65.859 -22.375 62.062 C-23.971 60.578 -23.971 60.578 -26.875 59.812 C-27.141 60.395 -27.406 60.978 -27.68 61.578 C-29.777 65.499 -32.88 68.557 -35.875 71.812 C-36.463 72.478 -37.051 73.143 -37.656 73.828 C-48.507 85.507 -64.565 92.774 -79.851 96.669 C-86.352 98.06 -86.352 98.06 -91.621 101.758 C-92.594 103.836 -92.594 103.836 -93.207 105.941 C-94.396 109.272 -96.825 110.348 -99.875 111.812 C-103.928 112.488 -105.512 112.015 -109.125 110 C-111.875 107.812 -111.875 107.812 -113.875 104.812 C-114.179 100.633 -114.366 97.3 -111.875 93.812 C-109.941 91.647 -108.579 90.883 -105.684 90.594 C-99.472 90.514 -99.472 90.514 -96.875 91.812 C-79.599 93.034 -60.169 82.744 -46.875 72.438 C-37.562 64.622 -37.562 64.622 -32.473 54.16 C-33.038 50.864 -34.885 49.481 -37.445 47.48 C-51.188 38.046 -65.81 32.364 -81.938 28.375 C-83.021 28.103 -84.104 27.832 -85.22 27.552 C-86.252 27.309 -87.284 27.067 -88.348 26.816 C-89.268 26.598 -90.189 26.38 -91.137 26.155 C-94.291 25.761 -96.792 26.074 -99.875 26.812 C-100.329 27.308 -100.783 27.803 -101.25 28.312 C-103.489 30.379 -105.765 30.677 -108.742 30.93 C-112.506 30.723 -115.22 29.489 -117.875 26.812 C-119.295 24.159 -119.852 21.818 -119.875 18.812 C-118.455 14.632 -116.784 11.935 -112.875 9.812 C-109.189 8.691 -107.398 8.624 -103.75 9.938 C-100.875 11.812 -100.875 11.812 -99.129 14.309 C-96.218 17.542 -94.17 17.872 -89.938 18.75 C-88.504 19.071 -87.072 19.395 -85.641 19.723 C-84.874 19.894 -84.108 20.066 -83.318 20.243 C-64.034 24.74 -46.111 31.054 -30.566 43.711 C-28.792 45.085 -28.792 45.085 -25.875 44.812 C-25.477 43.75 -25.078 42.688 -24.668 41.594 C-23.605 38.76 -22.543 35.927 -21.48 33.094 C-21.218 32.389 -20.955 31.685 -20.684 30.959 C-20.137 29.508 -19.58 28.06 -19.015 26.615 C-17.406 22.468 -16.449 19.284 -16.875 14.812 C-17.37 13.822 -17.37 13.822 -17.875 12.812 C-18.25 7.842 -18.034 4.761 -14.875 0.812 C-10.582 -2.526 -4.758 -1.965 0 0 Z " fill="#000000" transform="translate(376.875,236.1875)"/>
</svg>